<?xml version="1.0" encoding="UTF-8" standalone="no"?>
<!-- Created with Inkscape (http://www.inkscape.org/) -->

<svg
   width="824"
   height="219"
   viewBox="0 0 824.00001 219"
   version="1.1"
   id="svg1"
   xml:space="preserve"
   xmlns:xlink="http://www.w3.org/1999/xlink"
   xmlns="http://www.w3.org/2000/svg"
   xmlns:svg="http://www.w3.org/2000/svg"><defs
     id="defs1"><linearGradient
       id="linearGradient137"><stop
         style="stop-color:#000000;stop-opacity:1;"
         offset="0"
         id="stop135" /><stop
         style="stop-color:#090909;stop-opacity:1;"
         offset="0.30476591"
         id="stop136" /><stop
         style="stop-color:#494949;stop-opacity:1;"
         offset="0.56107253"
         id="stop138" /><stop
         style="stop-color:#c1c1be;stop-opacity:1;"
         offset="1"
         id="stop137" /></linearGradient><linearGradient
       id="linearGradient134"><stop
         style="stop-color:#000000;stop-opacity:1;"
         offset="0"
         id="stop132" /><stop
         style="stop-color:#000000;stop-opacity:0.90588235;"
         offset="0.46624744"
         id="stop133" /><stop
         style="stop-color:#c1c1be;stop-opacity:1;"
         offset="1"
         id="stop134" /></linearGradient><linearGradient
       id="linearGradient128"><stop
         style="stop-color:#b3b3ae;stop-opacity:1;"
         offset="0"
         id="stop126" /><stop
         style="stop-color:#b5b5b1;stop-opacity:1;"
         offset="0.59235883"
         id="stop127" /><stop
         style="stop-color:#60605c;stop-opacity:1;"
         offset="1"
         id="stop128" /></linearGradient><linearGradient
       x1="0"
       y1="0"
       x2="1"
       y2="0"
       gradientUnits="userSpaceOnUse"
       gradientTransform="matrix(-508.624,-1862.75,-1862.75,508.624,712.482,772.533)"
       spreadMethod="pad"
       id="linearGradient124"><stop
         style="stop-color:#0563aa;stop-opacity:1;"
         offset="0"
         id="stop122" /><stop
         style="stop-color:#022956;stop-opacity:1;"
         offset="0.47486001"
         id="stop123" /><stop
         style="stop-color:#293f84;stop-opacity:1;"
         offset="1"
         id="stop124" /></linearGradient><linearGradient
       x1="0"
       y1="0"
       x2="1"
       y2="0"
       gradientUnits="userSpaceOnUse"
       gradientTransform="matrix(1258.35,-855.413,-855.413,-1258.35,144.167,875.337)"
       spreadMethod="pad"
       id="linearGradient112"><stop
         style="stop-color:#0462a6;stop-opacity:1;"
         offset="0"
         id="stop110" /><stop
         style="stop-color:#045ea0;stop-opacity:1;"
         offset="0.53910601"
         id="stop111" /><stop
         style="stop-color:#033862;stop-opacity:1;"
         offset="1"
         id="stop112" /></linearGradient><linearGradient
       x1="0"
       y1="0"
       x2="1"
       y2="0"
       gradientUnits="userSpaceOnUse"
       gradientTransform="matrix(-508.624,-1862.75,-1862.75,508.624,712.482,772.533)"
       spreadMethod="pad"
       id="linearGradient109"><stop
         style="stop-color:#045ea0;stop-opacity:1;"
         offset="0"
         id="stop107" /><stop
         style="stop-color:#011934;stop-opacity:1;"
         offset="0.47486001"
         id="stop108" /><stop
         style="stop-opacity:1;stop-color:#202f63"
         offset="1"
         id="stop109" /></linearGradient><linearGradient
       id="linearGradient104"><stop
         style="stop-color:#c1c1be;stop-opacity:1;"
         offset="0"
         id="stop105" /><stop
         style="stop-color:#232323;stop-opacity:1;"
         offset="1"
         id="stop106" /></linearGradient><linearGradient
       id="linearGradient101"><stop
         style="stop-color:#c1c1be;stop-opacity:1;"
         offset="0"
         id="stop102" /><stop
         style="stop-color:#c1c1be;stop-opacity:1;"
         offset="0.59235883"
         id="stop104" /><stop
         style="stop-color:#82827e;stop-opacity:1;"
         offset="1"
         id="stop103" /></linearGradient><linearGradient
       x1="0"
       y1="0"
       x2="1"
       y2="0"
       gradientUnits="userSpaceOnUse"
       gradientTransform="matrix(1245.14,-604.404,-604.404,-1245.14,235.132,1487.11)"
       spreadMethod="pad"
       id="linearGradient100"><stop
         style="stop-color:#000000;stop-opacity:1;"
         offset="0.00083349"
         id="stop97" /><stop
         style="stop-color:#045ea0;stop-opacity:1;"
         offset="0.29755029"
         id="stop98" /><stop
         style="stop-color:#c18a02;stop-opacity:1;"
         offset="0.60166162"
         id="stop101" /><stop
         style="stop-color:#c18a02;stop-opacity:1;"
         offset="0.75962877"
         id="stop100" /></linearGradient><clipPath
       clipPathUnits="userSpaceOnUse"
       id="clipPath13-7-3"><path
         d="M 1295.74,719.93 C 1199.55,857.387 986.309,924.902 819.441,870.738 L 195.684,668.266 0,318.969 1116.17,128.41 1315.83,484.441 c 39.84,68.774 36.12,155.168 -20.09,235.489 z"
         id="path13-5-6" /></clipPath><clipPath
       clipPathUnits="userSpaceOnUse"
       id="clipPath16-8-3"><path
         d="M 1100.06,370.641 C 1003.88,508.094 790.625,575.613 623.762,521.445 L 0,318.969 c 0,0 526.531,-397.8792 935.676,-304.8909 12.32,2.6524 24.512,5.7305 36.426,9.5938 C 1138.96,77.8398 1196.25,233.18 1100.06,370.641 Z"
         id="path16-9-2" /></clipPath><clipPath
       clipPathUnits="userSpaceOnUse"
       id="clipPath5-2-5"><path
         d="M 0,0 H 1590 V 1483 H 0 Z"
         id="path5-9-4" /></clipPath><clipPath
       clipPathUnits="userSpaceOnUse"
       id="clipPath10-3-7"><path
         d="m 663.863,643.813 c -137.547,0.003 -279.851,64.253 -353.511,169.507 -31.61,45.172 -46.645,92.274 -46.664,137.082 -0.04,91.548 62.601,173.518 174.632,209.888 11.907,3.86 24.09,6.94 36.414,9.59 42.829,9.73 86.891,14.08 131.551,14.08 382,0 804.125,-318.968 804.125,-318.968 L 786.648,662.512 C 747.563,649.824 705.941,643.813 663.863,643.813"
         id="path10-1-6" /></clipPath><linearGradient
       xlink:href="#linearGradient112"
       id="linearGradient50"
       gradientUnits="userSpaceOnUse"
       gradientTransform="matrix(1258.35,-855.413,-855.413,-1258.35,144.167,875.337)"
       x1="0"
       y1="0"
       x2="1"
       y2="0"
       spreadMethod="pad" /><linearGradient
       xlink:href="#linearGradient109"
       id="linearGradient51"
       gradientUnits="userSpaceOnUse"
       gradientTransform="matrix(-508.624,-1862.75,-1862.75,508.624,712.482,772.533)"
       x1="0"
       y1="0"
       x2="1"
       y2="0"
       spreadMethod="pad" /><linearGradient
       xlink:href="#linearGradient124"
       id="linearGradient52"
       gradientUnits="userSpaceOnUse"
       gradientTransform="matrix(-508.624,-1862.75,-1862.75,508.624,712.482,772.533)"
       x1="0"
       y1="0"
       x2="1"
       y2="0"
       spreadMethod="pad" /><linearGradient
       xlink:href="#linearGradient100"
       id="linearGradient53"
       gradientUnits="userSpaceOnUse"
       gradientTransform="matrix(1245.14,-604.404,-604.404,-1245.14,235.132,1487.11)"
       x1="0"
       y1="0"
       x2="1"
       y2="0"
       spreadMethod="pad" /><linearGradient
       xlink:href="#linearGradient101"
       id="linearGradient54"
       gradientUnits="userSpaceOnUse"
       x1="1236.8086"
       y1="1595.0924"
       x2="410.93951"
       y2="452.36185" /><linearGradient
       xlink:href="#linearGradient104"
       id="linearGradient55"
       gradientUnits="userSpaceOnUse"
       x1="1238.0573"
       y1="1790.0598"
       x2="720.21954"
       y2="647.5293" /><linearGradient
       xlink:href="#linearGradient137"
       id="linearGradient56"
       gradientUnits="userSpaceOnUse"
       gradientTransform="translate(270.64772,15.7421)"
       x1="-990.22235"
       y1="999.10693"
       x2="-916.06445"
       y2="1045.3556" /><linearGradient
       xlink:href="#linearGradient128"
       id="linearGradient57"
       gradientUnits="userSpaceOnUse"
       x1="1236.8086"
       y1="1595.0924"
       x2="410.93951"
       y2="452.36185" /><linearGradient
       xlink:href="#linearGradient134"
       id="linearGradient58"
       gradientUnits="userSpaceOnUse"
       gradientTransform="translate(1127.9315,-977.01817)"
       x1="-1001.1315"
       y1="1059.5781"
       x2="-932.38672"
       y2="1059.5781" /></defs><g
     id="layer4"
     style="display:none"
     transform="translate(-280.45929,-259.20862)"><rect
       style="display:inline;fill:#253d4e;fill-opacity:1;stroke-width:8.29945"
       id="rect58-7"
       width="824"
       height="219.00002"
       x="470.45929"
       y="259.20862"
       transform="translate(-190)" /></g><g
     id="g96"
     transform="translate(-470.45929,-259.20862)"
     style="display:inline"><path
       id="path75"
       style="display:inline;fill:#dbdbd9;fill-opacity:1;stroke-width:0.938232"
       d="m 588.77121,269.92062 c -16.84263,0.3621 -36.60319,5.8939 -44.38603,22.3651 -7.34339,12.6418 -14.75633,25.2866 -22.60159,37.5672 -5.57519,12.0891 -2.51999,27.3305 6.55299,36.7573 -18.78011,5.4434 -12.83061,1.6424 -22.83109,18.7816 l -18.13408,33.4215 c -1.21411,1.8589 -0.76924,4.562 1.46333,8.587 3.57162,6.439 78.52643,46.326 119.40011,39.6446 14.11004,-2.2556 27.37921,-10.9612 32.96211,-24.4444 7.87026,-14.6255 16.86493,-28.7183 23.9231,-43.7372 3.90704,-11.8776 0.0693,-25.5148 -8.47705,-34.4251 4.38297,-1.5763 10.36439,-3.0191 13.7781,-4.6764 10.35192,-10.3726 20.035,-29.1954 27.28615,-42.3619 0.11379,-5.6776 -2.76235,-6.6832 -3.70338,-7.7723 l -23.33914,-14.846 c -14.4853,-7.8328 -51.04339,-25.6867 -81.89353,-24.861 z m 86.56277,85.1098 -0.0707,0.1543 z" /><g
       id="text1"
       style="font-size:123.328px;line-height:1;font-family:Inter;-inkscape-font-specification:Inter;letter-spacing:0.867153px;word-spacing:0px;fill:#3ca9f9;stroke-width:11.562"
       aria-label="AraraJs"><path
         style="font-family:'Finger Paint';-inkscape-font-specification:'Finger Paint';fill:#ffffff"
         d="m 814.00756,386.96116 -0.73996,-0.36998 q -5.17978,-1.35661 -10.9762,-1.72659 -5.79641,-0.36999 -11.83948,-1.60327 5.91974,1.23328 11.59283,1.97325 5.67309,0.61664 11.22285,2.46656 -1.7266,1.10995 -3.69984,1.10995 -2.34324,-0.24665 -4.68647,-0.73996 -2.2199,-0.49332 -4.80979,-0.73997 0,-0.73997 0.36998,-1.10995 -3.57651,0 -7.15302,-0.73997 -3.45318,-0.73997 -6.78304,-1.60327 -3.32986,-0.98662 -6.53638,-1.72659 -3.0832,-0.86329 -5.79642,-0.86329 0,0.36998 -0.12333,0.36998 3.20653,0.61664 6.04307,1.72659 2.83655,1.10995 6.41306,1.72659 3.45318,0.8633 6.65971,1.23328 3.32986,0.36999 6.53639,0.98663 -5.17978,-0.49331 -10.60621,-1.47994 -5.30311,-0.98662 -10.48288,-2.2199 l -5.79642,-1.47994 q -3.0832,7.89299 -6.28973,15.53933 -3.0832,7.52301 -6.04307,15.29267 -0.24665,-0.49331 -0.86329,-0.61664 -0.49332,0 -1.10996,0 -0.49331,0 -0.98662,-0.36998 -0.49331,-0.24666 -0.49331,-1.23328 0,-0.98662 0.49331,-2.83654 0.49331,-1.7266 1.84992,-4.68647 -0.24666,-0.24665 -0.8633,-0.24665 -0.49331,-0.12333 -0.73996,-0.12333 -2.46656,5.17977 -4.8098,7.89299 -2.2199,2.83654 -3.57651,2.83654 -1.47994,0 -1.47994,-2.83654 0,-2.34323 0.8633,-5.91974 0.8633,-3.69984 2.09658,-7.893 1.3566,-4.19315 2.95987,-8.63296 1.60326,-4.56313 3.0832,-8.87961 -1.35661,-0.8633 -2.95987,-1.23328 -1.47994,-0.36999 -3.32986,-0.61664 0.36998,-0.49332 0.36998,-1.23328 0,-0.73997 0.12333,-1.47994 0.12333,-0.73997 0.49331,-1.23328 0.36999,-0.49331 1.35661,-0.49331 0.24666,0 1.47994,0.24665 v -1.10995 q -1.97325,-0.98662 -3.0832,-2.34323 -0.98663,-1.35661 -0.98663,-2.71322 0,-2.95987 5.67309,-2.95987 1.60327,0 3.20653,0.24666 1.72659,0.12333 3.45319,0.36998 l 5.67308,-12.94944 q 1.84992,-4.19315 3.9465,-8.63296 2.2199,-4.43981 5.17978,-8.75629 2.95987,-4.31648 6.65971,-8.13964 3.82317,-3.9465 8.75629,-7.0297 l 1.84992,-0.73997 q 3.45318,0.8633 5.54976,1.47994 2.2199,0.49331 3.57651,0.73997 1.23328,0.49331 1.97325,0.61664 h -0.12333 l 0.12333,0.36998 q 0,0.12333 -0.12333,0.24666 l 1.47993,2.58988 q 8.01632,13.44276 13.56608,27.87213 5.54976,14.42938 9.49626,28.36544 0.98662,3.0832 2.34323,6.65971 1.47994,3.45319 2.71322,6.65972 1.35661,3.0832 2.2199,5.67308 0.8633,2.46657 0.8633,3.57652 0,0.86329 -0.36998,1.10995 -0.36999,0.12333 -0.98663,0.12333 -3.20653,-8.01632 -6.04307,-15.78599 -2.83655,-7.64633 -5.54976,-15.416 2.46656,7.76967 5.17977,15.416 2.83655,7.76967 5.67309,15.78599 h -0.86329 q -0.73997,0 -0.98663,0.73997 0.24666,0.24665 0.61664,1.3566 0.36999,0.98663 0.73997,2.09658 0.36998,1.23328 0.61664,2.46656 0.24666,1.23328 0.24666,1.84992 0,2.71322 -1.60327,2.71322 -0.86329,0 -1.35661,-0.36999 -0.49331,-0.36998 -1.10995,-0.98662 l -1.23328,-1.23328 q -0.73997,-0.73997 -1.84992,-1.47994 L 817.7074,377.83489 q 2.58989,8.01632 5.05645,16.03264 2.58989,8.01632 5.30311,15.78599 -1.97325,-2.34323 -3.69984,-5.67309 -1.60327,-3.32986 -3.0832,-7.0297 -1.35661,-3.69984 -2.58989,-7.52301 -1.23328,-3.94649 -2.46656,-7.39968 0,0.24666 0,0.49332 0.12333,0.12332 0.12333,0.36998 0,1.97325 -1.23328,2.95987 z m -0.73996,-12.82611 q 0.24665,0 0.73996,-0.12333 0.49332,-0.24665 0.73997,-0.24665 -4.06982,-10.23623 -8.13965,-19.85581 -3.94649,-9.61958 -8.75628,-18.4992 l -0.73997,0.73997 1.84992,3.32985 q 4.31648,7.893 7.76966,16.2793 3.45319,8.3863 6.53639,17.26592 -3.57652,-9.61958 -7.76967,-19.11584 -4.06982,-9.61958 -8.75629,-17.38925 l -0.49331,0.24666 q -4.19315,4.31648 -7.89299,10.35955 -3.57651,6.04307 -6.78304,12.3328 l -3.20653,7.76966 2.09658,0.49332 q 1.84992,0.49331 3.57651,1.10995 1.84992,0.49331 3.20653,1.10995 2.71321,1.35661 7.15302,2.09658 4.43981,0.73996 8.63296,1.47993 4.31648,0.61664 7.39968,1.47994 3.20653,0.73997 3.20653,2.2199 l -15.04602,-1.72659 q 1.35661,0.24666 3.32986,0.61664 1.97325,0.24666 3.9465,0.61664 2.09657,0.36998 4.06982,0.73997 1.97325,0.24665 3.32986,0.49331 0,0.36998 -0.12333,0.73997 0,0.24665 0,0.49331 0,0.24666 0.24665,0.36998 0.36999,0 0.73997,0.12333 0.49331,0 0.8633,0.24666 0.36998,0.12333 0.73997,0.73997 z m -26.76218,-26.39219 q 0.24666,0 0.12333,0.36998 0,0.24666 0.12333,0.24666 0.24665,0 1.47993,-1.72659 1.23328,-1.72659 2.83655,-3.9465 1.60326,-2.2199 3.0832,-4.19315 1.47993,-1.97325 2.09657,-2.58989 l -0.61664,-0.86329 q -2.58989,2.46656 -4.80979,5.79641 -2.2199,3.32986 -4.31648,6.90637 z m 12.45613,-13.31942 q 3.94649,6.65971 7.27635,13.93606 3.20653,7.15302 6.04307,14.30605 -2.34323,-7.15303 -5.67309,-14.30605 -3.45318,-7.27635 -7.523,-13.93606 z m 18.86918,18.4992 q 3.82317,9.86624 7.52301,20.10246 -3.45318,-9.98957 -7.27635,-19.73248 -3.57651,-9.61958 -8.26298,-19.3625 4.43981,9.37293 8.01632,18.99252 z m -18.12921,-21.21242 q 1.60326,0.36998 2.2199,0.73997 0.61664,0.36998 0.8633,0.36998 l 0.12332,-0.36998 q 0.12333,0 -0.49331,-0.12333 -0.61664,-0.12333 -0.98662,-0.24666 l 0.24665,-0.49331 -1.47993,-0.49331 z m -6.04308,-1.23328 0.98663,2.58989 -0.12333,-2.58989 q -0.24666,0 -0.61664,-0.12333 -0.24666,-0.12333 -0.49331,-0.12333 z m 3.20653,3.57651 -0.86329,0.61664 0.73996,0.98663 0.73997,-0.73997 z m 1.72659,-0.24665 h 0.12333 l -0.61664,-0.8633 v 0.12333 z m 70.67082,74.61344 q -1.23328,0.24665 -2.71321,0.24665 h -3.57651 q -3.20653,0 -4.56314,0.73997 -1.23328,0.73997 -1.47994,0.73997 l -0.49331,-2.2199 v -2.21991 l -0.61664,-11.59283 q -0.24666,-3.32986 -1.35661,-7.15303 -1.10995,-3.82316 -1.72659,-7.76966 -0.36998,-2.58989 -0.61664,-4.93312 l -0.49331,-4.80979 q -0.24666,-2.46656 -0.61664,-5.05645 -0.24666,-2.58989 -0.8633,-5.54976 0,-0.73997 0,-1.47994 0.12333,-0.73996 0.12333,-1.47993 0,-3.82317 -0.61664,-7.52301 -0.61664,-3.69984 -1.72659,-7.27635 0.86329,-0.36999 1.60326,-0.61664 0.73997,-0.36999 1.35661,-0.36999 0.61664,0 1.35661,1.47994 0.73997,1.35661 1.60326,5.79642 0.24666,0 0.73997,-0.12333 0.49331,-0.24666 0.73997,-0.24666 -0.12333,-2.09657 -0.61664,-4.43981 -0.49331,-2.46656 -0.98663,-4.68646 -0.49331,-2.2199 -0.98662,-3.9465 -0.36998,-1.84992 -0.36998,-2.95987 0,-0.24665 0,-0.61664 0.12332,-0.36998 0.61664,-0.36998 0.61664,0 1.60326,1.35661 0.98662,1.3566 2.09658,3.45318 1.10995,2.09658 2.09657,4.56314 1.10996,2.34323 1.97325,4.4398 3.32986,-6.28972 7.52301,-9.49625 4.31648,-3.32986 11.22285,-3.32986 5.05645,0 8.26297,1.23328 3.20653,1.10995 4.93312,2.58989 1.84992,1.35661 2.46656,2.58989 l 0.73997,1.23328 q 0,0.73997 -0.73997,0.98662 -3.20652,-3.0832 -7.27635,-4.68646 -4.06982,-1.60327 -8.3863,-1.60327 -4.19315,0 -6.28973,1.10996 -1.97325,0.98662 -4.19315,2.46656 2.34323,-1.47994 4.31648,-2.34324 2.09657,-0.86329 6.04307,-0.86329 4.31648,0 8.26298,1.72659 3.94649,1.60326 6.78304,4.19315 -0.61664,0.24666 -1.10996,0.61664 -0.36998,0.24666 -0.36998,0.8633 0.61664,0 1.35661,0.86329 0.73997,0.73997 1.35661,1.84992 0.61664,1.10996 0.98662,2.34324 0.49331,1.10995 0.49331,1.84992 0,2.09657 -1.60326,2.09657 -1.23328,0 -2.95987,-0.86329 -0.36999,-0.12333 -1.60327,-1.35661 -1.10995,-1.23328 -2.83654,-2.46656 -1.72659,-1.35661 -3.9465,-2.46656 -2.2199,-1.10995 -4.93312,-1.10995 -2.2199,0 -3.94649,0.98662 -1.60327,0.8633 -2.95988,2.46656 -1.3566,1.47994 -2.46656,3.45318 l -1.60326,2.95988 q 1.84992,-3.32986 4.06982,-6.04308 2.46656,-3.20652 6.1664,-3.20652 3.20653,0 5.91975,1.47993 2.71321,1.35661 4.43981,3.45319 -2.09658,-0.8633 -4.93312,-1.7266 -2.83655,-0.86329 -5.42644,-0.86329 -1.3566,0 -2.34323,0.61664 -0.98662,0.61664 -1.72659,1.60326 -0.61664,0.8633 -1.23328,1.97325 -0.49331,1.10995 -1.10995,2.09658 l -1.60327,0.24665 q -2.09657,3.57651 -3.45318,8.38631 -1.23328,4.68646 -1.23328,9.86624 0,3.0832 0.24666,5.54976 0.36998,2.46656 0.98662,5.05644 l 1.47994,3.82317 -0.24666,-3.57651 q -0.24666,-4.19315 -0.49331,-7.39968 -0.24666,-3.32986 -0.24666,-7.27635 0.24666,-3.57651 0.98663,-6.78304 0.61664,-2.71322 1.84992,-5.05645 -1.47994,2.95987 -1.97325,6.78304 -0.61664,4.19315 -0.61664,8.87962 0,3.69984 0.36998,7.02969 0.36999,3.32986 0.8633,6.65971 0.61664,3.32986 1.23328,6.90637 0.61664,3.45319 0.98662,7.64634 l 0.36999,2.34323 0.73996,7.0297 z m 1.47994,-55.12762 -0.36998,0.61664 z m 76.7138,21.45907 q -3.32986,0 -5.05645,-0.12333 -1.60327,-0.12332 -2.95987,-0.12332 -3.69984,0 -6.53639,0.36998 -2.83654,0.36998 -4.80979,1.47994 -1.97325,1.10995 -2.95987,3.20652 -0.98663,2.09658 -0.98663,5.54976 0,5.05645 1.10996,7.52301 1.23328,2.34323 3.32985,3.45319 2.21991,0.98662 5.30311,1.23328 3.0832,0.24665 6.90636,1.10995 2.21991,0.24665 4.43981,0.36998 2.21991,0 4.43981,0 h 8.87962 q -6.1664,-0.36998 -12.3328,-0.36998 -6.04308,-0.12333 -10.9762,-1.10995 -4.80979,-0.98663 -7.89299,-3.45319 -2.95987,-2.46656 -2.95987,-7.52301 0,-4.06982 0.98662,-6.1664 1.10996,-2.2199 2.83655,-3.20652 1.84992,-1.10996 4.31648,-1.23328 2.46656,-0.24666 5.3031,-0.24666 3.45319,0 7.0297,0.36998 -2.83655,0.8633 -5.79642,1.35661 -2.83654,0.36999 -5.3031,0.8633 -2.46656,0.36998 -4.31648,1.10995 -1.72659,0.61664 -2.34323,1.84992 v 5.54976 l -0.98663,0.49331 q 0.49331,3.0832 0.8633,4.68647 0.49331,1.47993 2.46656,2.34323 1.97325,0.73997 6.28973,1.23328 4.4398,0.49331 12.82611,1.60326 h 8.87961 q 2.34324,0 2.71322,-0.12333 0.49331,-0.24665 0.61664,-0.24665 l -1.10995,-6.65971 q -0.24666,-2.46656 -0.61664,-4.43981 -0.36999,-1.97325 -0.98663,-4.19315 -0.12332,0.36998 -0.73996,0.36998 0.61664,2.09658 0.98662,4.43981 0.49331,2.34323 0.73997,4.43981 0.36998,2.09657 0.49331,3.57651 0.24666,1.47993 0.49331,1.72659 l -0.73997,0.24666 q -0.24665,0.12332 -0.73996,0.12332 h -0.73997 q -0.8633,0 -1.97325,-0.12332 -1.10995,-0.24666 -2.83654,-0.24666 h -4.06983 q -4.80979,0 -8.87961,-0.49331 -3.82317,-0.49331 -6.65972,-1.23328 2.83655,0.61664 6.90637,0.98662 4.31648,0.49331 8.01632,0.49331 1.60327,0 3.32986,0 1.84992,-0.12332 3.94649,-0.12332 h 4.06983 q -0.36999,-0.36999 -0.8633,-0.36999 h -0.24665 q -0.49332,-8.50963 -2.21991,-16.27929 -1.72659,-7.76967 -5.54976,-13.56608 -3.82317,-5.91975 -9.98957,-9.37293 -6.1664,-3.57651 -15.416,-3.57651 -2.58988,0 -5.17977,0.36998 -2.58989,0.36998 -5.30311,0.98662 0.24666,-0.24665 0.24666,-0.49331 0,-0.61664 -0.49331,-1.10995 -0.49331,-0.61664 -0.49331,-1.23328 0,-0.73997 1.47993,-1.35661 1.60327,-0.73997 6.65971,-1.35661 -0.24665,-0.24665 -0.36998,-0.73996 0,-0.49332 0,-0.73997 -6.65971,0 -10.35955,-0.24666 -3.69984,-0.36998 -3.69984,-1.84992 0,-0.61664 1.47993,-1.72659 1.60327,-1.10995 4.43981,-2.09658 2.83655,-1.10995 6.78304,-1.84992 4.06983,-0.86329 9.00295,-0.86329 9.49625,0 16.27929,2.95987 6.78304,2.83654 11.34618,7.64634 4.68646,4.68646 7.52301,10.72953 2.95987,6.04307 4.68646,12.20947 1.84992,6.04308 2.71322,11.83949 0.86329,5.67309 1.60326,9.86624 0,0.73997 0,1.47994 0.12333,0.73997 0.12333,1.72659 0,3.57651 -1.35661,6.28973 -1.23328,2.58989 -3.57651,4.31648 -2.21991,1.84992 -5.30311,2.71322 -2.95987,0.98662 -6.41305,0.98662 -2.71322,0 -7.0297,-0.12333 -4.31648,-0.12333 -8.26297,-0.73997 -2.58989,-0.61664 -5.67309,-0.98662 -3.0832,-0.24666 -6.28973,-0.98662 -3.20653,-0.73997 -6.28973,-2.09658 -2.95987,-1.35661 -5.42643,-4.06982 -2.34323,-2.83655 -3.82317,-7.27636 -1.35661,-4.43981 -1.35661,-11.22285 0,-6.41305 2.95988,-10.23622 2.95987,-3.9465 7.02969,-6.04307 4.19315,-2.21991 8.50963,-2.83655 4.31648,-0.73996 7.0297,-0.73996 3.45318,0 4.56314,0.49331 1.10995,0.49331 1.10995,0.98662 0,0.36999 -0.12333,0.61664 -3.0832,0 -7.89299,0.24666 -4.80979,0.24665 -9.37293,1.60326 -4.43981,1.35661 -7.64634,4.19315 -3.20652,2.71322 -3.20652,7.76967 1.10995,-4.56314 3.69984,-7.15303 2.71321,-2.71321 6.1664,-3.94649 3.45318,-1.35661 7.02969,-1.60327 3.69984,-0.36998 6.65971,-0.36998 h 4.19316 q -0.49332,0.49331 -0.49332,0.98662 0,0.49332 0.49332,0.8633 h 4.80979 q 1.97325,0.36998 2.83654,1.35661 0.8633,0.86329 0.8633,1.60326 0,1.10995 -1.10995,1.97325 -1.10996,0.8633 -3.69984,1.72659 z m -20.71911,29.84538 q 3.45319,1.35661 7.0297,2.09658 3.69984,0.73996 7.27635,0.98662 3.57651,0.36998 6.65971,0.36998 -2.46656,-0.24665 -4.93312,-0.86329 -2.58989,-0.61664 -4.56313,-1.10995 -2.09658,-0.49332 -4.19316,-0.61664 -1.97324,-0.24666 -4.19315,-0.61664 -2.09657,-0.36999 -4.31648,-1.10996 -2.2199,-0.86329 -4.43981,-2.46656 2.34324,2.09658 5.67309,3.32986 z m 1.23328,-12.94944 q -0.12333,-0.12333 0.73997,0.73997 0.73997,0.73996 1.97325,1.10995 -0.61664,-0.24666 -1.84992,-0.61664 -1.35661,-0.49331 -1.35661,-1.47994 z m 3.0832,1.84992 q -0.12333,0 -0.36998,0 0.12333,0 0.36998,0 z m 79.18051,14.92269 q -1.2333,0.24665 -2.7132,0.24665 h -3.5766 q -3.2065,0 -4.56309,0.73997 -1.23328,0.73997 -1.47994,0.73997 l -0.49331,-2.2199 v -2.21991 l -0.61664,-11.59283 q -0.24666,-3.32986 -1.35661,-7.15303 -1.10995,-3.82316 -1.72659,-7.76966 -0.36998,-2.58989 -0.61664,-4.93312 l -0.49331,-4.80979 q -0.24666,-2.46656 -0.61664,-5.05645 -0.24666,-2.58989 -0.8633,-5.54976 0,-0.73997 0,-1.47994 0.12333,-0.73996 0.12333,-1.47993 0,-3.82317 -0.61664,-7.52301 -0.61664,-3.69984 -1.72659,-7.27635 0.86329,-0.36999 1.60326,-0.61664 0.73997,-0.36999 1.35661,-0.36999 0.61664,0 1.35661,1.47994 0.73997,1.35661 1.60326,5.79642 0.24666,0 0.73997,-0.12333 0.49331,-0.24666 0.73997,-0.24666 -0.12333,-2.09657 -0.61664,-4.43981 -0.49331,-2.46656 -0.98663,-4.68646 -0.49331,-2.2199 -0.98662,-3.9465 -0.36998,-1.84992 -0.36998,-2.95987 0,-0.24665 0,-0.61664 0.12332,-0.36998 0.61664,-0.36998 0.61664,0 1.60326,1.35661 0.98662,1.3566 2.09658,3.45318 1.10995,2.09658 2.09657,4.56314 1.10991,2.34323 1.97321,4.4398 3.3299,-6.28972 7.523,-9.49625 4.3165,-3.32986 11.2229,-3.32986 5.0564,0 8.263,1.23328 3.2065,1.10995 4.9331,2.58989 1.8499,1.35661 2.4666,2.58989 l 0.7399,1.23328 q 0,0.73997 -0.7399,0.98662 -3.2066,-3.0832 -7.2764,-4.68646 -4.0698,-1.60327 -8.3863,-1.60327 -4.1932,0 -6.2897,1.10996 -1.9733,0.98662 -4.1932,2.46656 2.3432,-1.47994 4.3165,-2.34324 2.0966,-0.86329 6.0431,-0.86329 4.3164,0 8.2629,1.72659 3.9465,1.60326 6.7831,4.19315 -0.6167,0.24666 -1.11,0.61664 -0.37,0.24666 -0.37,0.8633 0.6167,0 1.3567,0.86329 0.7399,0.73997 1.3566,1.84992 0.6166,1.10996 0.9866,2.34324 0.4933,1.10995 0.4933,1.84992 0,2.09657 -1.6033,2.09657 -1.2332,0 -2.9598,-0.86329 -0.37,-0.12333 -1.6033,-1.35661 -1.11,-1.23328 -2.8365,-2.46656 -1.7266,-1.35661 -3.9465,-2.46656 -2.2199,-1.10995 -4.9332,-1.10995 -2.2199,0 -3.9465,0.98662 -1.6032,0.8633 -2.9598,2.46656 -1.3566,1.47994 -2.4666,3.45318 l -1.6033,2.95988 q 1.85,-3.32986 4.0699,-6.04308 2.4665,-3.20652 6.1664,-3.20652 3.2065,0 5.9197,1.47993 2.7132,1.35661 4.4398,3.45319 -2.0966,-0.8633 -4.9331,-1.7266 -2.8365,-0.86329 -5.4264,-0.86329 -1.3566,0 -2.3433,0.61664 -0.9866,0.61664 -1.7266,1.60326 -0.6166,0.8633 -1.2332,1.97325 -0.4933,1.10995 -1.11,2.09658 l -1.6032,0.24665 q -2.0966,3.57651 -3.4532,8.38631 -1.2333,4.68646 -1.2333,9.86624 0,3.0832 0.2466,5.54976 0.37,2.46656 0.9867,5.05644 l 1.4799,3.82317 -0.2467,-3.57651 q -0.2466,-4.19315 -0.4933,-7.39968 -0.2466,-3.32986 -0.2466,-7.27635 0.2466,-3.57651 0.9866,-6.78304 0.6166,-2.71322 1.8499,-5.05645 -1.4799,2.95987 -1.9732,6.78304 -0.6167,4.19315 -0.6167,8.87962 0,3.69984 0.37,7.02969 0.37,3.32986 0.8633,6.65971 0.6167,3.32986 1.2333,6.90637 0.6166,3.45319 0.9866,7.64634 l 0.37,2.34323 0.74,7.0297 z m 1.4799,-55.12762 -0.37,0.61664 z m 76.7138,21.45907 q -3.3299,0 -5.0564,-0.12333 -1.6033,-0.12332 -2.9599,-0.12332 -3.6999,0 -6.5364,0.36998 -2.8365,0.36998 -4.8098,1.47994 -1.9732,1.10995 -2.9599,3.20652 -0.9866,2.09658 -0.9866,5.54976 0,5.05645 1.11,7.52301 1.2332,2.34323 3.3298,3.45319 2.2199,0.98662 5.3031,1.23328 3.0832,0.24665 6.9064,1.10995 2.2199,0.24665 4.4398,0.36998 2.2199,0 4.4398,0 h 8.8796 q -6.1664,-0.36998 -12.3328,-0.36998 -6.043,-0.12333 -10.9762,-1.10995 -4.8098,-0.98663 -7.893,-3.45319 -2.9598,-2.46656 -2.9598,-7.52301 0,-4.06982 0.9866,-6.1664 1.1099,-2.2199 2.8365,-3.20652 1.85,-1.10996 4.3165,-1.23328 2.4666,-0.24666 5.3031,-0.24666 3.4532,0 7.0297,0.36998 -2.8365,0.8633 -5.7964,1.35661 -2.8365,0.36999 -5.3031,0.8633 -2.4666,0.36998 -4.3165,1.10995 -1.7266,0.61664 -2.3432,1.84992 v 5.54976 l -0.9866,0.49331 q 0.4933,3.0832 0.8633,4.68647 0.4933,1.47993 2.4665,2.34323 1.9733,0.73997 6.2897,1.23328 4.4399,0.49331 12.8262,1.60326 h 8.8796 q 2.3432,0 2.7132,-0.12333 0.4933,-0.24665 0.6166,-0.24665 l -1.1099,-6.65971 q -0.2467,-2.46656 -0.6167,-4.43981 -0.3699,-1.97325 -0.9866,-4.19315 -0.1233,0.36998 -0.74,0.36998 0.6167,2.09658 0.9867,4.43981 0.4933,2.34323 0.7399,4.43981 0.37,2.09657 0.4933,3.57651 0.2467,1.47993 0.4934,1.72659 l -0.74,0.24666 q -0.2467,0.12332 -0.74,0.12332 h -0.7399 q -0.8633,0 -1.9733,-0.12332 -1.1099,-0.24666 -2.8365,-0.24666 h -4.0699 q -4.8098,0 -8.8796,-0.49331 -3.8231,-0.49331 -6.6597,-1.23328 2.8366,0.61664 6.9064,0.98662 4.3165,0.49331 8.0163,0.49331 1.6033,0 3.3299,0 1.8499,-0.12332 3.9465,-0.12332 h 4.0698 q -0.37,-0.36999 -0.8633,-0.36999 h -0.2467 q -0.4933,-8.50963 -2.2199,-16.27929 -1.7266,-7.76967 -5.5497,-13.56608 -3.8232,-5.91975 -9.9896,-9.37293 -6.1664,-3.57651 -15.416,-3.57651 -2.5899,0 -5.1798,0.36998 -2.5899,0.36998 -5.3031,0.98662 0.2467,-0.24665 0.2467,-0.49331 0,-0.61664 -0.4933,-1.10995 -0.4934,-0.61664 -0.4934,-1.23328 0,-0.73997 1.48,-1.35661 1.6032,-0.73997 6.6597,-1.35661 -0.2467,-0.24665 -0.37,-0.73996 0,-0.49332 0,-0.73997 -6.6597,0 -10.3595,-0.24666 -3.6999,-0.36998 -3.6999,-1.84992 0,-0.61664 1.48,-1.72659 1.6032,-1.10995 4.4398,-2.09658 2.8365,-1.10995 6.783,-1.84992 4.0698,-0.86329 9.0029,-0.86329 9.4963,0 16.2793,2.95987 6.7831,2.83654 11.3462,7.64634 4.6865,4.68646 7.523,10.72953 2.9599,6.04307 4.6865,12.20947 1.8499,6.04308 2.7132,11.83949 0.8633,5.67309 1.6033,9.86624 0,0.73997 0,1.47994 0.1233,0.73997 0.1233,1.72659 0,3.57651 -1.3566,6.28973 -1.2333,2.58989 -3.5765,4.31648 -2.2199,1.84992 -5.3031,2.71322 -2.9599,0.98662 -6.4131,0.98662 -2.7132,0 -7.0297,-0.12333 -4.3165,-0.12333 -8.263,-0.73997 -2.5898,-0.61664 -5.673,-0.98662 -3.0832,-0.24666 -6.2898,-0.98662 -3.2065,-0.73997 -6.2897,-2.09658 -2.9599,-1.35661 -5.4264,-4.06982 -2.3433,-2.83655 -3.8232,-7.27636 -1.3566,-4.43981 -1.3566,-11.22285 0,-6.41305 2.9599,-10.23622 2.9598,-3.9465 7.0297,-6.04307 4.1931,-2.21991 8.5096,-2.83655 4.3165,-0.73996 7.0297,-0.73996 3.4532,0 4.5631,0.49331 1.11,0.49331 1.11,0.98662 0,0.36999 -0.1234,0.61664 -3.0832,0 -7.8929,0.24666 -4.8098,0.24665 -9.373,1.60326 -4.4398,1.35661 -7.6463,4.19315 -3.2065,2.71322 -3.2065,7.76967 1.1099,-4.56314 3.6998,-7.15303 2.7132,-2.71321 6.1664,-3.94649 3.4532,-1.35661 7.0297,-1.60327 3.6998,-0.36998 6.6597,-0.36998 h 4.1932 q -0.4933,0.49331 -0.4933,0.98662 0,0.49332 0.4933,0.8633 h 4.8098 q 1.9732,0.36998 2.8365,1.35661 0.8633,0.86329 0.8633,1.60326 0,1.10995 -1.11,1.97325 -1.1099,0.8633 -3.6998,1.72659 z m -20.7191,29.84538 q 3.4532,1.35661 7.0297,2.09658 3.6998,0.73996 7.2763,0.98662 3.5766,0.36998 6.6598,0.36998 -2.4666,-0.24665 -4.9332,-0.86329 -2.5898,-0.61664 -4.5631,-1.10995 -2.0966,-0.49332 -4.1931,-0.61664 -1.9733,-0.24666 -4.1932,-0.61664 -2.0966,-0.36999 -4.3165,-1.10996 -2.2199,-0.86329 -4.4398,-2.46656 2.3432,2.09658 5.6731,3.32986 z m 1.2333,-12.94944 q -0.1233,-0.12333 0.7399,0.73997 0.74,0.73996 1.9733,1.10995 -0.6166,-0.24666 -1.8499,-0.61664 -1.3566,-0.49331 -1.3566,-1.47994 z m 3.0832,1.84992 q -0.1233,0 -0.37,0 0.1233,0 0.37,0 z"
         id="path61" /><path
         style="font-family:'Finger Paint';-inkscape-font-specification:'Finger Paint';fill:#6bbffa"
         d="m 1127.4033,406.44699 q 2.9598,1.47994 6.043,2.95987 3.0832,1.47994 6.5364,1.47994 3.5765,0 6.2898,-2.09658 2.7132,-2.09657 4.6864,-5.3031 1.9733,-3.32986 3.2065,-7.52301 1.3567,-4.19315 2.22,-8.26298 0.8632,-4.19315 1.2332,-7.89299 0.1234,-1.35661 0.2467,-2.46656 -0.1233,0.98662 -0.2467,2.09658 -0.4933,3.57651 -1.3566,7.76966 -0.8633,4.06982 -2.0966,8.26298 -1.2332,4.06982 -3.0832,7.39968 -1.8499,3.32985 -4.3164,5.42643 -2.4666,2.09658 -5.7964,2.09658 -3.0832,0 -6.0431,-1.23328 -2.8366,-1.10996 -5.3031,-2.71322 2.8365,0 5.4264,0.73997 2.5899,0.73997 5.4264,0.73997 2.4666,0 3.8232,-0.98663 1.4799,-0.98662 2.8366,-2.83654 l 1.7265,0.12333 q 2.7133,-5.17978 4.4399,-11.46951 1.7265,-6.28973 2.7132,-12.94944 0.9866,-6.65971 1.3566,-13.1961 0.37,-6.65971 0.37,-12.45612 v -3.82317 q 0,-1.97325 -0.1234,-3.9465 l -0.37,0.49331 q -0.2466,6.1664 -0.4933,13.68941 -0.2466,7.39968 -1.1099,14.92269 -0.74,7.52301 -2.4666,14.5527 -1.6032,7.0297 -4.6864,12.45613 3.6998,-6.90637 5.3031,-15.78598 1.6032,-9.00295 2.0965,-18.4992 0.6167,-9.49626 0.74,-18.86919 0.1233,-9.49625 0.8633,-17.38924 -6.9064,-0.73997 -14.1827,-1.60327 -7.153,-0.86329 -14.0594,-0.86329 0,-1.23328 -0.1233,-1.84992 0,-0.61664 0,-1.23328 0,-1.10996 1.7266,-1.35661 1.7265,-0.24666 2.4665,-0.24666 h 0.2467 l 2.8365,0.12333 v -1.47994 q -0.74,-0.12332 -2.5899,-0.36998 -1.7266,-0.36998 -3.6998,-0.98662 -1.8499,-0.61664 -3.3299,-1.47994 -1.3566,-0.8633 -1.3566,-1.97325 0,-1.10995 2.2199,-1.72659 2.3433,-0.61664 5.1798,-0.98663 2.8365,-0.36998 5.4264,-0.36998 2.5899,-0.12333 3.3299,-0.12333 6.6597,0 12.8261,0.73997 6.1664,0.61664 12.9494,1.97325 l 6.0431,8.63296 q -0.8633,4.43981 -1.2333,10.97619 -0.3699,6.41306 -0.6166,13.93607 -0.2467,7.523 -0.74,15.66265 -0.37,8.13965 -1.6032,15.90931 -1.11,7.76967 -3.3299,14.79936 -2.0966,7.0297 -5.6731,12.33281 -3.5765,5.3031 -9.0029,8.3863 -5.3031,3.20653 -12.8261,3.20653 -3.2066,0 -6.9064,-1.23328 -3.5765,-1.10995 -5.9197,-3.45319 l 0.3699,-0.98662 q 3.2066,1.60326 6.5364,2.46656 3.3299,0.98662 6.9064,0.98662 4.1931,0 8.263,-1.72659 -3.8232,1.35661 -7.7697,1.35661 -3.5765,0 -6.783,-0.98662 -3.2066,-0.98663 -6.4131,-2.46656 l 0.8633,-1.47994 q -0.6166,-0.36998 -1.7266,-1.10995 -1.1099,-0.61664 -2.0966,-1.47994 -0.9866,-0.73997 -1.7266,-1.72659 -0.7399,-0.8633 -0.7399,-1.60326 0,-1.23328 1.4799,-1.60327 1.4799,-0.49331 2.3432,-0.49331 z m 70.6707,-19.23917 q 1.9732,0.61664 4.6864,2.2199 2.8366,1.60327 6.2898,3.32986 3.4532,1.72659 7.523,3.0832 4.1931,1.35661 8.8796,1.35661 h 1.3566 q 0.74,0 1.7266,-0.24666 l 1.3566,0.98663 q 4.8098,-1.47994 7.893,-5.54976 3.0832,-4.19316 3.0832,-11.22285 0,-5.05645 -2.4666,-6.90637 -2.3432,-1.97325 -8.7563,-1.97325 -3.9464,0 -8.2629,0.61664 -4.1932,0.49331 -8.8796,0.49331 -2.0966,0 -4.3165,-0.12332 -2.2199,-0.24666 -4.5632,-0.8633 v 0.73997 q 4.9332,1.23328 9.743,1.23328 4.6864,0 8.8796,-0.49331 4.3164,-0.61664 8.2629,-0.61664 3.3299,0 5.1798,0.73996 1.9733,0.61664 2.9599,1.7266 0.9866,1.10995 1.2333,2.71321 0.37,1.47994 0.37,3.32986 0,5.79641 -3.0832,9.86624 -2.9599,3.82317 -7.0297,4.80979 4.5631,-1.60326 7.153,-5.54976 2.7132,-4.19315 2.7132,-9.37293 0,-3.69984 -1.9732,-5.67309 -1.85,-1.97324 -6.5364,-1.97324 -3.8232,0 -8.633,0.49331 -4.8098,0.49331 -10.2362,0.49331 -3.3299,0 -7.7697,-0.8633 -4.3165,-0.86329 -8.263,-3.20652 -3.9465,-2.34324 -6.6597,-6.41306 -2.7132,-4.19315 -2.7132,-10.85286 0,-5.30311 2.0966,-9.74292 2.2199,-4.56313 5.7964,-7.89299 3.5765,-3.45318 8.1397,-5.42643 4.6864,-1.97325 9.6195,-2.09658 4.6865,0 8.8797,1.35661 4.3164,1.23328 8.1396,3.32986 3.8232,1.97325 7.2764,4.43981 3.4531,2.46656 6.413,4.93312 l -2.4665,2.46656 q -0.8633,0 -2.5899,-0.98663 -1.7266,-1.10995 -5.3031,-3.69984 l -0.74,1.10995 q 4.4398,3.57652 6.413,6.65972 2.0966,3.0832 2.0966,4.80979 -0.2466,0.98662 -1.2333,0.98662 -0.9866,0 -3.9465,-1.60326 -2.9598,-1.60327 -6.783,-3.57651 -3.6998,-1.97325 -7.893,-3.57652 -4.1931,-1.60326 -7.6463,-1.60326 -1.9733,0 -3.9465,0.73997 -1.9733,0.73997 -3.5765,2.09657 -1.6033,1.23328 -2.7132,3.0832 -0.9867,1.84992 -0.9867,4.06983 0,3.57651 3.3299,4.80979 3.3298,1.23328 8.7563,1.23328 1.1099,0 2.3432,0 1.3566,-0.12333 2.4666,-0.36998 2.8365,0 3.6998,-0.12333 0.9866,-0.24666 1.8499,-0.24666 5.3031,0 10.6062,0.73997 5.3031,0.73997 9.4963,3.20653 4.1931,2.46656 6.783,7.02969 2.5899,4.56314 2.5899,12.20948 0,5.3031 -1.8499,10.6062 -1.7266,5.17978 -5.3031,9.37293 -3.5765,4.06983 -8.8796,6.53639 -5.3031,2.58989 -12.4561,2.58989 -4.3165,0 -10.2363,-1.7266 -5.7964,-1.60326 -11.0995,-3.82316 -5.1798,-2.34324 -8.8796,-4.8098 -3.5765,-2.46656 -3.5765,-4.19315 0,-0.49331 0.6166,-0.73997 7.523,5.54976 15.2927,9.12628 7.6463,3.32985 15.6626,3.69984 -3.9464,-0.24666 -7.8929,-1.35661 -4.0699,-1.23328 -8.1397,-2.95987 -3.9465,-1.84992 -7.6463,-4.06983 -3.5765,-2.34323 -6.9064,-4.68646 l 1.8499,-1.60327 q -0.37,-0.12333 -1.3566,-0.86329 -0.9866,-0.73997 -1.9732,-1.84992 -0.8633,-1.10996 -1.6033,-2.34324 -0.74,-1.23328 -0.74,-2.34323 0,-1.23328 0.4933,-1.60326 0.4934,-0.36999 1.11,-0.36999 0.6166,0 2.5899,0.8633 1.9732,0.8633 4.8098,1.84992 z m 27.2555,12.57946 q -4.3165,0 -9.6196,-1.7266 -5.1798,-1.84992 -9.8663,-4.68646 3.8232,2.58989 8.5097,4.68646 4.6864,1.97325 10.8528,1.97325 8.263,0 13.0728,-5.05645 4.9331,-5.05644 4.9331,-13.56608 v -1.23328 q -0.6166,-3.94649 -2.7132,-6.41305 -1.9732,-2.58989 -6.1664,-2.83655 2.5899,0.49332 4.1932,1.60327 1.7266,1.10995 2.5899,2.71321 0.9866,1.47994 1.3566,3.32986 0.3699,1.84992 0.3699,3.82317 -0.4933,8.13965 -5.1797,12.82611 -4.6865,4.56314 -12.3328,4.56314 z m 15.6626,4.80979 q 3.0832,-1.97325 4.9331,-4.80979 1.85,-2.83655 3.2066,-5.91975 -2.5899,5.17978 -7.1531,9.12628 -4.4398,3.94649 -10.6062,4.93312 2.3433,-0.36999 4.8098,-0.98663 2.5899,-0.73997 4.8098,-2.34323 z m 11.7162,-23.18567 q 0,-1.3566 -0.4933,-2.58988 -0.37,-0.98663 -0.6167,-2.09658 l 0.1234,1.60326 q 0.1233,0.98663 0.1233,2.71322 0,3.32986 -0.74,6.41306 -0.7399,3.0832 -1.8499,6.04307 1.11,-2.71322 2.0966,-5.67309 1.1099,-3.0832 1.3566,-6.41306 z m -1.11,-5.05644 q 0,0.12332 0,0.36998 0,-0.24666 0,-0.36998 z m -21.5824,20.22579 q -0.1233,0 -0.2466,0 0.1233,0 0.2466,0 z"
         id="path62" /></g><g
       id="g95"
       transform="translate(190.41419,-4.7944642)"
       style="display:inline"><g
         id="g78"
         transform="matrix(0.93823204,0,0,0.93823204,301.99217,281.14622)"><path
           id="path76"
           d="M 1295.74,719.93 C 1199.55,857.387 986.309,924.902 819.441,870.738 L 195.684,668.266 0,318.969 1116.17,128.41 1315.83,484.441 c 39.84,68.774 36.12,155.168 -20.09,235.489"
           style="fill:url(#linearGradient50);fill-opacity:1;fill-rule:nonzero;stroke:none"
           transform="matrix(0.13333333,0,0,-0.13333333,0,197.76)"
           clip-path="url(#clipPath13-7-3)" /><path
           id="path77"
           d="M 1100.06,370.641 C 1003.88,508.094 790.625,575.613 623.762,521.445 L 0,318.969 c 0,0 526.531,-397.8792 935.676,-304.8909 12.32,2.6524 24.512,5.7305 36.426,9.5938 C 1138.96,77.8398 1196.25,233.18 1100.06,370.641"
           style="fill:url(#linearGradient51);fill-opacity:1;fill-rule:nonzero;stroke:none"
           transform="matrix(0.13333333,0,0,-0.13333333,0,197.76)"
           clip-path="url(#clipPath16-8-3)" /><path
           id="path78"
           clip-path="url(#clipPath16-8-3)"
           style="fill:url(#linearGradient52);fill-opacity:1;fill-rule:nonzero;stroke:none"
           d="m 755.05204,540.06654 c -44.96053,0.86024 -89.57824,-5.07617 -131.29395,-18.61816 L -0.0016869,318.96302 c 0,0 32.5202029,-24.5197 87.4511739,-59.89746 L 623.75809,433.1476 c 166.86284,54.16794 380.12871,-13.35281 476.30861,-150.80567 21.2875,-30.42112 35.0185,-61.71072 41.748,-92.59278 13.0604,57.05947 0.3786,120.69229 -41.748,180.89356 -72.1349,103.08965 -210.13306,166.84313 -345.01466,169.42383 z"
           transform="matrix(0.13333333,0,0,-0.13333333,5.2133332e-4,197.76045)" /></g><g
         id="g94"
         transform="matrix(0.93823204,0,0,0.93823204,301.99217,281.14622)"><path
           id="path79"
           d="m 1589.7,1164.27 c 0,0 -526.54,397.87 -935.677,304.88 -12.324,-2.64 -24.511,-5.72 -36.418,-9.58 -62.625,-20.34 -109.812,-54.91 -139.246,-97.45 h -0.007 v -0.01 c -5.61,-8.1 -10.5,-16.52 -14.797,-25.16 l -151.035,-256.8 261.281,-51.2 C 676.887,954.664 821.484,923.848 945.352,956.129 l 465.058,-91.137 179.29,299.278"
           style="fill:#7fb5e5;fill-opacity:1;fill-rule:nonzero;stroke:none"
           transform="matrix(0.13333333,0,0,-0.13333333,0,197.76)" /><path
           d="m 1410,864 v 1 h -1 v 1 h -2 v 1 h -1 v 1 h -2 v 1 h -1 v 1 h -1 v 1 h -2 v 1 h -1 v 1 h -1 v 1 h -2 v 1 h -1 v 1 h -2 v 1 h -1 v 1 h -1 v 1 h -2 v 1 h -1 v 1 h -2 v 1 h -1 v 1 h -2 v 1 h -1 v 1 h -1 v 1 h -2 v 1 h -1 v 1 h -2 v 1 h -1 v 1 h -2 v 1 h -1 v 1 h -1 v 1 h -2 v 1 h -1 v 1 h -2 v 1 h -1 v 1 h -2 v 1 h -1 v 1 h -2 v 1 h -1 v 1 h -2 v 1 h -1 v 1 h -2 v 1 h -1 v 1 h -2 v 1 h -1 v 1 h -2 v 1 h -1 v 1 h -2 v 1 h -1 v 1 h -2 v 1 h -1 v 1 h -2 v 1 h -1 v 1 h -2 v 1 h -1 v 1 h -2 v 1 h -1 v 1 h -2 v 1 h -2 v 1 h -1 v 1 h -2 v 1 h -1 v 1 h -2 v 1 h -1 v 1 h -2 v 1 h -1 v 1 h -2 v 1 h -2 v 1 h -1 v 1 h -2 v 1 h -1 v 1 h -2 v 1 h -1 v 1 h -2 v 1 h -2 v 1 h -1 v 1 h -2 v 1 h -1 v 1 h -2 v 1 h -2 v 1 h -1 v 1 h -2 v 1 h -1 v 1 h -2 v 1 h -2 v 1 h -1 v 1 h -2 v 1 h -1 v 1 h -2 v 1 h -2 v 1 h -1 v 1 h -2 v 1 h -2 v 1 h -1 v 1 h -2 v 1 h -2 v 1 h -1 v 1 h -2 v 1 h -2 v 1 h -1 v 1 h -2 v 1 h -2 v 1 h -1 v 1 h -2 v 1 h -2 v 1 h -1 v 1 h -2 v 1 h -2 v 1 h -1 v 1 h -2 v 1 h -2 v 1 h -2 v 1 h -1 v 1 h -2 v 1 h -2 v 1 h -1 v 1 h -2 v 1 h -2 v 1 h -2 v 1 h -1 v 1 h -2 v 1 h -2 v 1 h -2 v 1 h -1 v 1 h -2 v 1 h -2 v 1 h -2 v 1 h -1 v 1 h -2 v 1 h -2 v 1 h -2 v 1 h -1 v 1 h -2 v 1 h -2 v 1 h -2 v 1 h -2 v 1 h -2 v 1 h -1 v 1 h -2 v 1 h -2 v 1 h -2 v 1 h -2 v 1 h -1 v 1 h -2 v 1 h -2 v 1 h -2 v 1 h -2 v 1 h -2 v 1 h -1 v 1 h -2 v 1 h -2 v 1 h -2 v 1 h -2 v 1 h -2 v 1 h -2 v 1 h -2 v 1 h -2 v 1 h -1 v 1 h -2 v 1 h -2 v 1 h -2 v 1 h -2 v 1 h -2 v 1 h -2 v 1 h -2 v 1 h -2 v 1 h -2 v 1 h -2 v 1 h -2 v 1 h -2 v 1 h -2 v 1 h -2 v 1 h -2 v 1 h -1 v 1 h -2 v 1 h -2 v 1 h -2 v 1 h -2 v 1 h -2 v 1 h -2 v 1 h -3 v 1 h -2 v 1 h -2 v 1 h -2 v 1 h -2 v 1 h -2 v 1 h -2 v 1 h -2 v 1 h -2 v 1 h -2 v 1 h -2 v 1 h -2 v 1 h -2 v 1 h -2 v 1 h -2 v 1 h -3 v 1 h -2 v 1 h -2 v 1 h -2 v 1 h -2 v 1 h -2 v 1 h -2 v 1 h -3 v 1 h -2 v 1 h -2 v 1 h -2 v 1 h -2 v 1 h -2 v 1 h -3 v 1 h -2 v 1 h -2 v 1 h -3 v 1 h -2 v 1 h -2 v 1 h -2 v 1 h -3 v 1 h -2 v 1 h -2 v 1 h -2 v 1 h -3 v 1 h -2 v 1 h -2 v 1 h -3 v 1 h -2 v 1 h -2 v 1 h -3 v 1 h -2 v 1 h -3 v 1 h -2 v 1 h -2 v 1 h -3 v 1 h -2 v 1 h -3 v 1 h -2 v 1 h -2 v 1 h -3 v 1 h -2 v 1 h -3 v 1 h -3 v 1 h -2 v 1 h -3 v 1 h -2 v 1 h -3 v 1 h -2 v 1 h -3 v 1 h -2 v 1 h -3 v 1 h -2 v 1 h -3 v 1 h -3 v 1 h -3 v 1 h -2 v 1 h -3 v 1 h -3 v 1 h -3 v 1 h -2 v 1 h -3 v 1 h -3 v 1 h -3 v 1 h -2 v 1 h -3 v 1 h -3 v 1 h -3 v 1 h -3 v 1 h -3 v 1 h -3 v 1 h -3 v 1 h -3 v 1 h -3 v 1 h -3 v 1 h -3 v 1 h -3 v 1 h -3 v 1 h -4 v 1 h -3 v 1 h -3 v 1 h -3 v 1 h -4 v 1 h -3 v 1 h -3 v 1 h -4 v 1 h -3 v 1 h -3 v 1 h -4 v 1 h -3 v 1 h -4 v 1 h -4 v 1 h -4 v 1 h -3 v 1 h -4 v 1 h -4 v 1 h -3 v 1 h -4 v 1 h -4 v 1 h -5 v 1 h -4 v 1 h -4 v 1 h -4 v 1 h -4 v 1 h -5 v 1 h -4 v 1 h -5 v 1 h -5 v 1 h -5 v 1 h -5 v 1 h -5 v 1 h -5 v 1 h -5 v 1 h -6 v 1 h -6 v 1 h -6 v 1 h -6 v 1 h -6 v 1 h -7 v 1 h -8 v 1 h -8 v 1 h -9 v 1 h -8 v 1 h -12 v 1 h -13 v 1 h -14 v 1 h -70 v -1 h -13 v -1 h -13 v -1 h -10 v -1 h -7 v -1 h -8 v -1 h -7 v -1 h -7 v -1 h -6 v -1 h -5 v -1 h -6 v -1 h -5 v -1 h -5 v -1 h -4 v -1 h -5 v -1 h -3 v -1 h -4 v -1 h -4 v -1 h -4 v -1 h -4 v -1 h -4 v -1 h -3 v -1 h -4 v -1 h -3 v -1 h -3 v -1 h -3 v -1 h -3 v -1 h -2 v -1 h -3 v -1 h -3 v -1 h -2 v -1 h -3 v -1 h -2 v -1 h -2 v -1 h -3 v -1 h -2 v -1 h -2 v -1 h -3 v -1 h -2 v -1 h -2 v -1 h -2 v -1 h -2 v -1 h -2 v -1 h -2 v -1 h -2 v -1 h -2 v -1 h -2 v -1 h -2 v -1 h -1 v -1 h -2 v -1 h -2 v -1 h -1 v -1 h -2 v -1 h -2 v -1 h -1 v -1 h -2 v -1 h -2 v -1 h -1 v -1 h -2 v -1 h -1 v -1 h -2 v -1 h -1 v -1 h -1 v -1 h -2 v -1 h -1 v -1 h -2 v -1 h -1 v -1 h -2 v -1 h -1 v -1 h -1 v -1 h -1 v -1 h -2 v -1 h -1 v -1 h -1 v -1 h -1 v -1 h -2 v -1 h -1 v -1 h -1 v -1 h -1 v -1 h -1 v -1 h -1 v -1 h -2 v -1 h -1 v -1 h -1 v -1 h -1 v -1 h -1 v -1 h -1 v -1 h -1 v -1 h -1 v -1 h -1 v -1 h -1 v -1 h -1 v -1 h -1 v -1 h -1 v -1 h -1 v -1 h -1 v -1 h -1 v -1 h -1 v -1 h -1 v -1 h -1 v -1 h -1 v -1 h -1 v -2 h -2 v 1 h 1 v 2 h 1 v 2 h 1 v 2 h 1 v 1 h 1 v 2 h 1 v 2 h 1 v 1 h 1 v 2 h 1 v 2 h 1 v 1 h 1 v 2 h 1 v 2 h 1 v 2 h 1 v 1 h 1 v 2 h 1 v 2 h 1 v 1 h 1 v 2 h 1 v 2 h 1 v 1 h 1 v 2 h 1 v 2 h 1 v 2 h 1 v 1 h 1 v 2 h 1 v 2 h 1 v 1 h 1 v 2 h 1 v 2 h 1 v 1 h 1 v 2 h 1 v 2 h 1 v 2 h 1 v 1 h 1 v 2 h 1 v 2 h 1 v 1 h 1 v 2 h 1 v 2 h 1 v 1 h 1 v 2 h 1 v 2 h 1 v 2 h 1 v 1 h 1 v 2 h 1 v 2 h 1 v 1 h 1 v 2 h 1 v 2 h 1 v 1 h 1 v 2 h 1 v 2 h 1 v 2 h 1 v 1 h 1 v 2 h 1 v 2 h 1 v 1 h 1 v 2 h 1 v 2 h 1 v 1 h 1 v 2 h 1 v 2 h 1 v 2 h 1 v 1 h 1 v 2 h 1 v 2 h 1 v 1 h 1 v 2 h 1 v 2 h 1 v 1 h 1 v 2 h 1 v 2 h 1 v 2 h 1 v 1 h 1 v 2 h 1 v 2 h 1 v 1 h 1 v 2 h 1 v 2 h 1 v 1 h 1 v 2 h 1 v 2 h 1 v 2 h 1 v 1 h 1 v 2 h 1 v 2 h 1 v 1 h 1 v 2 h 1 v 2 h 1 v 1 h 1 v 2 h 1 v 2 h 1 v 2 h 1 v 1 h 1 v 2 h 1 v 2 h 1 v 1 h 1 v 2 h 1 v 2 h 1 v 1 h 1 v 2 h 1 v 2 h 1 v 2 h 1 v 1 h 1 v 2 h 1 v 2 h 1 v 1 h 1 v 2 h 1 v 2 h 1 v 1 h 1 v 2 h 1 v 2 h 1 v 2 h 1 v 1 h 1 v 2 h 1 v 2 h 1 v 1 h 1 v 2 h 1 v 2 h 1 v 1 h 1 v 2 h 1 v 2 h 1 v 2 h 1 v 1 h 1 v 2 h 1 v 2 h 1 v 1 h 1 v 2 h 1 v 2 h 1 v 1 h 1 v 2 h 1 v 2 h 1 v 2 h 1 v 1 h 1 v 2 h 1 v 2 h 1 v 1 h 1 v 2 h 1 v 2 h 1 v 1 h 1 v 2 h 1 v 2 h 1 v 2 h 1 v 1 h 1 v 2 h 1 v 2 h 1 v 1 h 1 v 2 h 1 v 2 h 1 v 2 h 1 v 1 h 1 v 2 h 1 v 2 h 1 v 2 h 1 v 1 h 1 v 2 h 1 v 2 h 1 v 1 h 1 v 2 h 1 v 2 h 1 v 2 h 1 v 1 h 1 v 2 h 1 v 2 h 1 v 1 h 1 v 2 h 1 v 1 h 1 v 1 h 1 v 2 h 1 v 1 h 1 v 1 h 1 v 2 h 1 v 1 h 1 v 1 h 1 v 1 h 1 v 2 h 1 v 1 h 1 v 1 h 1 v 1 h 1 v 1 h 1 v 1 h 1 v 1 h 1 v 1 h 1 v 2 h 1 v 1 h 1 v 1 h 1 v 1 h 1 v 1 h 1 v 1 h 1 v 1 h 1 v 1 h 1 v 1 h 1 v 1 h 1 v 1 h 1 v 1 h 1 v 1 h 1 v 1 h 1 v 1 h 1 v 1 h 2 v 1 h 1 v 1 h 1 v 1 h 1 v 1 h 1 v 1 h 1 v 1 h 1 v 1 h 2 v 1 h 1 v 1 h 1 v 1 h 1 v 1 h 2 v 1 h 1 v 1 h 1 v 1 h 2 v 1 h 1 v 1 h 1 v 1 h 2 v 1 h 1 v 1 h 1 v 1 h 2 v 1 h 1 v 1 h 2 v 1 h 1 v 1 h 2 v 1 h 2 v 1 h 1 v 1 h 2 v 1 h 1 v 1 h 2 v 1 h 1 v 1 h 2 v 1 h 2 v 1 h 2 v 1 h 2 v 1 h 1 v 1 h 2 v 1 h 2 v 1 h 2 v 1 h 2 v 1 h 2 v 1 h 2 v 1 h 2 v 1 h 2 v 1 h 2 v 1 h 3 v 1 h 2 v 1 h 2 v 1 h 2 v 1 h 2 v 1 h 3 v 1 h 2 v 1 h 3 v 1 h 3 v 1 h 2 v 1 h 3 v 1 h 3 v 1 h 2 v 1 h 3 v 1 h 3 v 1 h 4 v 1 h 4 v 1 h 4 v 1 h 3 v 1 h 4 v 1 h 4 v 1 h 4 v 1 h 4 v 1 h 4 v 1 h 4 v 1 h 5 v 1 h 5 v 1 h 6 v 1 h 5 v 1 h 5 v 1 h 7 v 1 h 7 v 1 h 8 v 1 h 7 v 1 h 9 v 1 h 13 v 1 h 12 v 1 h 80 v -1 h 14 v -1 h 13 v -1 h 11 v -1 h 8 v -1 h 8 v -1 h 9 v -1 h 7 v -1 h 7 v -1 h 6 v -1 h 6 v -1 h 6 v -1 h 6 v -1 h 6 v -1 h 5 v -1 h 5 v -1 h 5 v -1 h 5 v -1 h 5 v -1 h 5 v -1 h 5 v -1 h 4 v -1 h 4 v -1 h 4 v -1 h 4 v -1 h 5 v -1 h 4 v -1 h 4 v -1 h 4 v -1 h 4 v -1 h 4 v -1 h 3 v -1 h 4 v -1 h 4 v -1 h 3 v -1 h 4 v -1 h 4 v -1 h 3 v -1 h 4 v -1 h 3 v -1 h 4 v -1 h 3 v -1 h 3 v -1 h 3 v -1 h 4 v -1 h 3 v -1 h 3 v -1 h 4 v -1 h 3 v -1 h 3 v -1 h 3 v -1 h 3 v -1 h 3 v -1 h 3 v -1 h 3 v -1 h 3 v -1 h 3 v -1 h 3 v -1 h 3 v -1 h 3 v -1 h 3 v -1 h 3 v -1 h 2 v -1 h 3 v -1 h 3 v -1 h 3 v -1 h 2 v -1 h 3 v -1 h 3 v -1 h 3 v -1 h 2 v -1 h 3 v -1 h 3 v -1 h 2 v -1 h 3 v -1 h 3 v -1 h 2 v -1 h 3 v -1 h 2 v -1 h 3 v -1 h 2 v -1 h 3 v -1 h 2 v -1 h 3 v -1 h 3 v -1 h 2 v -1 h 3 v -1 h 2 v -1 h 2 v -1 h 3 v -1 h 2 v -1 h 3 v -1 h 2 v -1 h 2 v -1 h 3 v -1 h 2 v -1 h 3 v -1 h 2 v -1 h 2 v -1 h 3 v -1 h 2 v -1 h 2 v -1 h 3 v -1 h 2 v -1 h 2 v -1 h 2 v -1 h 3 v -1 h 2 v -1 h 2 v -1 h 2 v -1 h 3 v -1 h 2 v -1 h 2 v -1 h 2 v -1 h 3 v -1 h 2 v -1 h 2 v -1 h 2 v -1 h 2 v -1 h 2 v -1 h 3 v -1 h 2 v -1 h 2 v -1 h 2 v -1 h 2 v -1 h 2 v -1 h 2 v -1 h 3 v -1 h 2 v -1 h 2 v -1 h 2 v -1 h 2 v -1 h 2 v -1 h 2 v -1 h 2 v -1 h 2 v -1 h 2 v -1 h 2 v -1 h 2 v -1 h 2 v -1 h 2 v -1 h 2 v -1 h 2 v -1 h 2 v -1 h 2 v -1 h 2 v -1 h 2 v -1 h 2 v -1 h 2 v -1 h 2 v -1 h 2 v -1 h 2 v -1 h 2 v -1 h 2 v -1 h 2 v -1 h 2 v -1 h 2 v -1 h 2 v -1 h 2 v -1 h 2 v -1 h 2 v -1 h 2 v -1 h 1 v -1 h 2 v -1 h 2 v -1 h 2 v -1 h 2 v -1 h 2 v -1 h 2 v -1 h 2 v -1 h 2 v -1 h 1 v -1 h 2 v -1 h 2 v -1 h 2 v -1 h 2 v -1 h 2 v -1 h 2 v -1 h 1 v -1 h 2 v -1 h 2 v -1 h 2 v -1 h 2 v -1 h 1 v -1 h 2 v -1 h 2 v -1 h 2 v -1 h 2 v -1 h 2 v -1 h 1 v -1 h 2 v -1 h 2 v -1 h 2 v -1 h 1 v -1 h 2 v -1 h 2 v -1 h 2 v -1 h 1 v -1 h 2 v -1 h 2 v -1 h 2 v -1 h 1 v -1 h 2 v -1 h 2 v -1 h 2 v -1 h 1 v -1 h 2 v -1 h 2 v -1 h 1 v -1 h 2 v -1 h 2 v -1 h 2 v -1 h 1 v -1 h 2 v -1 h 2 v -1 h 1 v -1 h 2 v -1 h 2 v -1 h 1 v -1 h 2 v -1 h 2 v -1 h 1 v -1 h 2 v -1 h 2 v -1 h 1 v -1 h 2 v -1 h 2 v -1 h 1 v -1 h 2 v -1 h 2 v -1 h 1 v -1 h 2 v -1 h 2 v -1 h 1 v -1 h 2 v -1 h 1 v -1 h 2 v -1 h 2 v -1 h 1 v -1 h 2 v -1 h 2 v -1 h 1 v -1 h 2 v -1 h 1 v -1 h 2 v -1 h 2 v -1 h 1 v -1 h 2 v -1 h 1 v -1 h 2 v -1 h 1 v -1 h 2 v -1 h 2 v -1 h 1 v -1 h 2 v -1 h 1 v -1 h 2 v -1 h 1 v -1 h 2 v -1 h 2 v -1 h 1 v -1 h 2 v -1 h 1 v -1 h 2 v -1 h 1 v -1 h 2 v -1 h 1 v -1 h 2 v -1 h 1 v -1 h 2 v -1 h 1 v -1 h 2 v -1 h 1 v -1 h 2 v -1 h 1 v -1 h 2 v -1 h 1 v -1 h 2 v -1 h 1 v -1 h 2 v -1 h 1 v -1 h 2 v -1 h 1 v -1 h 2 v -1 h 1 v -1 h 2 v -1 h 1 v -1 h 2 v -1 h 1 v -1 h 2 v -1 h 1 v -1 h 2 v -1 h 1 v -1 h 2 v -1 h 1 v -1 h 1 v -1 h 2 v -1 h 1 v -1 h 2 v -1 h 1 v -1 h 2 v -1 h 1 v -1 h 1 v -1 h 2 v -1 h 1 v -1 h 2 v -1 h 1 v -1 h 1 v -1 h 2 v -1 h 1 v -1 h 2 v -1 h 1 v -1 h 1 v -1 h 2 v -1 h 1 v -1 h 2 v -1 h 1 v -1 h 1 v -1 h 1 v -2 h -1 v -2 h -1 v -2 h -1 v -1 h -1 v -2 h -1 v -2 h -1 v -1 h -1 v -2 h -1 v -2 h -1 v -1 h -1 v -2 h -1 v -2 h -1 v -1 h -1 v -2 h -1 v -2 h -1 v -1 h -1 v -2 h -1 v -2 h -1 v -1 h -1 v -2 h -1 v -2 h -1 v -1 h -1 v -2 h -1 v -2 h -1 v -1 h -1 v -2 h -1 v -2 h -1 v -1 h -1 v -2 h -1 v -2 h -1 v -1 h -1 v -2 h -1 v -2 h -1 v -1 h -1 v -2 h -1 v -2 h -1 v -1 h -1 v -2 h -1 v -2 h -1 v -1 h -1 v -2 h -1 v -2 h -1 v -2 h -1 v -1 h -1 v -2 h -1 v -2 h -1 v -1 h -1 v -2 h -1 v -2 h -1 v -1 h -1 v -2 h -1 v -2 h -1 v -1 h -1 v -2 h -1 v -2 h -1 v -1 h -1 v -2 h -1 v -2 h -1 v -1 h -1 v -2 h -1 v -2 h -1 v -1 h -1 v -2 h -1 v -2 h -1 v -1 h -1 v -2 h -1 v -2 h -1 v -1 h -1 v -2 h -1 v -2 h -1 v -1 h -1 v -2 h -1 v -2 h -1 v -1 h -1 v -2 h -1 v -2 h -1 v -1 h -1 v -2 h -1 v -2 h -1 v -1 h -1 v -2 h -1 v -2 h -1 v -1 h -1 v -2 h -1 v -2 h -1 v -1 h -1 v -2 h -1 v -2 h -1 v -1 h -1 v -2 h -1 v -2 h -1 v -1 h -1 v -2 h -1 v -2 h -1 v -1 h -1 v -2 h -1 v -2 h -1 v -1 h -1 v -2 h -1 v -2 h -1 v -1 h -1 v -2 h -1 v -2 h -1 v -1 h -1 v -2 h -1 v -2 h -1 v -1 h -1 v -2 h -1 v -2 h -1 v -1 h -1 v -2 h -1 v -2 h -1 v -1 h -1 v -2 h -1 v -2 h -1 v -1 h -1 v -2 h -1 v -2 h -1 v -1 h -1 v -2 h -1 v -2 h -1 v -1 h -1 v -2 h -1 v -2 h -1 v -1 h -1 v -2 h -1 v -2 h -1 v -1 h -1 v -2 h -1 v -2 h -1 v -1 h -1 v -2 h -1 v -2 h -1 v -1 h -1 v -2 h -1 v -2 h -1 v -1 h -1 v -2 h -1 v -2 h -1 v -1 h -1 v -2 h -1 v -2 h -1 v -1 h -1 v -2 h -1 v -2 h -1 v -1 h -1 v -2 h -1 v -2 h -1 v -1 h -1 v -2 h -1 v -2 h -1 v -1 h -1 v -2 h -1 v -2 h -1 v -1 h -1 v -2 h -1 v -2 h -1 v -1 h -1 v -2 h -1 v -2 h -1 v -1 h -1 v -2 h -1 v -2 h -1 v -1 h -1 v -2 h -1 v -2 h -1 v -1 h -1 v -2 h -1 v -2 h -1 v -1 h -1 v -2 h -1 v -2 h -1 v -2 h -1 v -1 h -1 v -2 h -1 v -2 h -1 v -1 h -1 v -2 h -1 v -2 h -1 v -1"
           style="fill:url(#linearGradient53);fill-opacity:1;fill-rule:nonzero;stroke:none"
           transform="matrix(0.13333333,0,0,-0.13333333,0,197.76)"
           clip-path="url(#clipPath5-2-5)"
           id="path80" /><path
           id="path81"
           d="m 474.734,1169.88 c -12.324,-2.65 -24.507,-5.73 -36.414,-9.59 C 271.453,1106.12 214.16,950.777 310.352,813.32 406.543,675.867 619.785,608.348 786.648,662.512 l 623.762,202.48 c 0,0 -526.531,397.878 -935.676,304.888"
           style="fill:#5987ce;fill-opacity:1;fill-rule:nonzero;stroke:none"
           transform="matrix(0.13333333,0,0,-0.13333333,0,197.76)" /><path
           id="path82"
           d="m 663.863,643.813 c -137.547,0.003 -279.851,64.253 -353.511,169.507 -31.61,45.172 -46.645,92.274 -46.664,137.082 -0.04,91.548 62.601,173.518 174.632,209.888 11.907,3.86 24.09,6.94 36.414,9.59 42.829,9.73 86.891,14.08 131.551,14.08 382,0 804.125,-318.968 804.125,-318.968 L 786.648,662.512 C 747.563,649.824 705.941,643.813 663.863,643.813"
           style="fill:url(#linearGradient54);fill-rule:nonzero;stroke:none"
           transform="matrix(0.13333333,0,0,-0.13333333,0,197.76)"
           clip-path="url(#clipPath10-3-7)" /><path
           d="m 1410,864 v 1 h -1 v 1 h -2 v 1 h -1 v 1 h -2 v 1 h -1 v 1 h -1 v 1 h -2 v 1 h -1 v 1 h -1 v 1 h -2 v 1 h -1 v 1 h -2 v 1 h -1 v 1 h -1 v 1 h -2 v 1 h -1 v 1 h -2 v 1 h -1 v 1 h -2 v 1 h -1 v 1 h -1 v 1 h -2 v 1 h -1 v 1 h -2 v 1 h -1 v 1 h -2 v 1 h -1 v 1 h -1 v 1 h -2 v 1 h -1 v 1 h -2 v 1 h -1 v 1 h -2 v 1 h -1 v 1 h -2 v 1 h -1 v 1 h -2 v 1 h -1 v 1 h -2 v 1 h -1 v 1 h -2 v 1 h -1 v 1 h -2 v 1 h -1 v 1 h -2 v 1 h -1 v 1 h -2 v 1 h -1 v 1 h -2 v 1 h -1 v 1 h -2 v 1 h -1 v 1 h -2 v 1 h -1 v 1 h -2 v 1 h -2 v 1 h -1 v 1 h -2 v 1 h -1 v 1 h -2 v 1 h -1 v 1 h -2 v 1 h -1 v 1 h -2 v 1 h -2 v 1 h -1 v 1 h -2 v 1 h -1 v 1 h -2 v 1 h -1 v 1 h -2 v 1 h -2 v 1 h -1 v 1 h -2 v 1 h -1 v 1 h -2 v 1 h -2 v 1 h -1 v 1 h -2 v 1 h -1 v 1 h -2 v 1 h -2 v 1 h -1 v 1 h -2 v 1 h -1 v 1 h -2 v 1 h -2 v 1 h -1 v 1 h -2 v 1 h -2 v 1 h -1 v 1 h -2 v 1 h -2 v 1 h -1 v 1 h -2 v 1 h -2 v 1 h -1 v 1 h -2 v 1 h -2 v 1 h -1 v 1 h -2 v 1 h -2 v 1 h -1 v 1 h -2 v 1 h -2 v 1 h -1 v 1 h -2 v 1 h -2 v 1 h -2 v 1 h -1 v 1 h -2 v 1 h -2 v 1 h -1 v 1 h -2 v 1 h -2 v 1 h -2 v 1 h -1 v 1 h -2 v 1 h -2 v 1 h -2 v 1 h -1 v 1 h -2 v 1 h -2 v 1 h -2 v 1 h -1 v 1 h -2 v 1 h -2 v 1 h -2 v 1 h -1 v 1 h -2 v 1 h -2 v 1 h -2 v 1 h -2 v 1 h -2 v 1 h -1 v 1 h -2 v 1 h -2 v 1 h -2 v 1 h -2 v 1 h -1 v 1 h -2 v 1 h -2 v 1 h -2 v 1 h -2 v 1 h -2 v 1 h -1 v 1 h -2 v 1 h -2 v 1 h -2 v 1 h -2 v 1 h -2 v 1 h -2 v 1 h -2 v 1 h -2 v 1 h -1 v 1 h -2 v 1 h -2 v 1 h -2 v 1 h -2 v 1 h -2 v 1 h -2 v 1 h -2 v 1 h -2 v 1 h -2 v 1 h -2 v 1 h -2 v 1 h -2 v 1 h -2 v 1 h -2 v 1 h -2 v 1 h -1 v 1 h -2 v 1 h -2 v 1 h -2 v 1 h -2 v 1 h -2 v 1 h -2 v 1 h -3 v 1 h -2 v 1 h -2 v 1 h -2 v 1 h -2 v 1 h -2 v 1 h -2 v 1 h -2 v 1 h -2 v 1 h -2 v 1 h -2 v 1 h -2 v 1 h -2 v 1 h -2 v 1 h -2 v 1 h -3 v 1 h -2 v 1 h -2 v 1 h -2 v 1 h -2 v 1 h -2 v 1 h -2 v 1 h -3 v 1 h -2 v 1 h -2 v 1 h -2 v 1 h -2 v 1 h -2 v 1 h -3 v 1 h -2 v 1 h -2 v 1 h -3 v 1 h -2 v 1 h -2 v 1 h -2 v 1 h -3 v 1 h -2 v 1 h -2 v 1 h -2 v 1 h -3 v 1 h -2 v 1 h -2 v 1 h -3 v 1 h -2 v 1 h -2 v 1 h -3 v 1 h -2 v 1 h -3 v 1 h -2 v 1 h -2 v 1 h -3 v 1 h -2 v 1 h -3 v 1 h -2 v 1 h -2 v 1 h -3 v 1 h -2 v 1 h -3 v 1 h -3 v 1 h -2 v 1 h -3 v 1 h -2 v 1 h -3 v 1 h -2 v 1 h -3 v 1 h -2 v 1 h -3 v 1 h -2 v 1 h -3 v 1 h -3 v 1 h -3 v 1 h -2 v 1 h -3 v 1 h -3 v 1 h -3 v 1 h -2 v 1 h -3 v 1 h -3 v 1 h -3 v 1 h -2 v 1 h -3 v 1 h -3 v 1 h -3 v 1 h -3 v 1 h -3 v 1 h -3 v 1 h -3 v 1 h -3 v 1 h -3 v 1 h -3 v 1 h -3 v 1 h -3 v 1 h -3 v 1 h -4 v 1 h -3 v 1 h -3 v 1 h -3 v 1 h -4 v 1 h -3 v 1 h -3 v 1 h -4 v 1 h -3 v 1 h -3 v 1 h -4 v 1 h -3 v 1 h -4 v 1 h -4 v 1 h -4 v 1 h -3 v 1 h -4 v 1 h -4 v 1 h -3 v 1 h -4 v 1 h -4 v 1 h -5 v 1 h -4 v 1 h -4 v 1 h -4 v 1 h -4 v 1 h -5 v 1 h -4 v 1 h -5 v 1 h -5 v 1 h -5 v 1 h -5 v 1 h -5 v 1 h -5 v 1 h -5 v 1 h -6 v 1 h -6 v 1 h -6 v 1 h -6 v 1 h -6 v 1 h -7 v 1 h -8 v 1 h -8 v 1 h -9 v 1 h -8 v 1 h -12 v 1 h -13 v 1 h -14 v 1 h -70 v -1 h -13 v -1 h -13 v -1 h -10 v -1 h -7 v -1 h -8 v -1 h -7 v -1 h -7 v -1 h -6 v -1 h -5 v -1 h -6 v -1 h -5 v -1 h -5 v -1 h -4 v -1 h -5 v -1 h -3 v -1 h -4 v -1 h -4 v -1 h -4 v -1 h -4 v -1 h -4 v -1 h -3 v -1 h -4 v -1 h -3 v -1 h -3 v -1 h -3 v -1 h -3 v -1 h -2 v -1 h -3 v -1 h -3 v -1 h -2 v -1 h -3 v -1 h -2 v -1 h -2 v -1 h -3 v -1 h -2 v -1 h -2 v -1 h -3 v -1 h -2 v -1 h -2 v -1 h -2 v -1 h -2 v -1 h -2 v -1 h -2 v -1 h -2 v -1 h -2 v -1 h -2 v -1 h -2 v -1 h -1 v -1 h -2 v -1 h -2 v -1 h -1 v -1 h -2 v -1 h -2 v -1 h -1 v -1 h -2 v -1 h -2 v -1 h -1 v -1 h -2 v -1 h -1 v -1 h -2 v -1 h -1 v -1 h -1 v -1 h -2 v -1 h -1 v -1 h -2 v -1 h -1 v -1 h -2 v -1 h -1 v -1 h -1 v -1 h -1 v -1 h -2 v -1 h -1 v -1 h -1 v -1 h -1 v -1 h -2 v -1 h -1 v -1 h -1 v -1 h -1 v -1 h -1 v -1 h -1 v -1 h -2 v -1 h -1 v -1 h -1 v -1 h -1 v -1 h -1 v -1 h -1 v -1 h -1 v -1 h -1 v -1 h -1 v -1 h -1 v -1 h -1 v -1 h -1 v -1 h -1 v -1 h -1 v -1 h -1 v -1 h -1 v -1 h -1 v -1 h -1 v -1 h -1 v -1 h -1 v -1 h -1 v -2 h -2 v 1 h 1 v 2 h 1 v 2 h 1 v 2 h 1 v 1 h 1 v 2 h 1 v 2 h 1 v 1 h 1 v 2 h 1 v 2 h 1 v 1 h 1 v 2 h 1 v 2 h 1 v 2 h 1 v 1 h 1 v 2 h 1 v 2 h 1 v 1 h 1 v 2 h 1 v 2 h 1 v 1 h 1 v 2 h 1 v 2 h 1 v 2 h 1 v 1 h 1 v 2 h 1 v 2 h 1 v 1 h 1 v 2 h 1 v 2 h 1 v 1 h 1 v 2 h 1 v 2 h 1 v 2 h 1 v 1 h 1 v 2 h 1 v 2 h 1 v 1 h 1 v 2 h 1 v 2 h 1 v 1 h 1 v 2 h 1 v 2 h 1 v 2 h 1 v 1 h 1 v 2 h 1 v 2 h 1 v 1 h 1 v 2 h 1 v 2 h 1 v 1 h 1 v 2 h 1 v 2 h 1 v 2 h 1 v 1 h 1 v 2 h 1 v 2 h 1 v 1 h 1 v 2 h 1 v 2 h 1 v 1 h 1 v 2 h 1 v 2 h 1 v 2 h 1 v 1 h 1 v 2 h 1 v 2 h 1 v 1 h 1 v 2 h 1 v 2 h 1 v 1 h 1 v 2 h 1 v 2 h 1 v 2 h 1 v 1 h 1 v 2 h 1 v 2 h 1 v 1 h 1 v 2 h 1 v 2 h 1 v 1 h 1 v 2 h 1 v 2 h 1 v 2 h 1 v 1 h 1 v 2 h 1 v 2 h 1 v 1 h 1 v 2 h 1 v 2 h 1 v 1 h 1 v 2 h 1 v 2 h 1 v 2 h 1 v 1 h 1 v 2 h 1 v 2 h 1 v 1 h 1 v 2 h 1 v 2 h 1 v 1 h 1 v 2 h 1 v 2 h 1 v 2 h 1 v 1 h 1 v 2 h 1 v 2 h 1 v 1 h 1 v 2 h 1 v 2 h 1 v 1 h 1 v 2 h 1 v 2 h 1 v 2 h 1 v 1 h 1 v 2 h 1 v 2 h 1 v 1 h 1 v 2 h 1 v 2 h 1 v 1 h 1 v 2 h 1 v 2 h 1 v 2 h 1 v 1 h 1 v 2 h 1 v 2 h 1 v 1 h 1 v 2 h 1 v 2 h 1 v 1 h 1 v 2 h 1 v 2 h 1 v 2 h 1 v 1 h 1 v 2 h 1 v 2 h 1 v 1 h 1 v 2 h 1 v 2 h 1 v 1 h 1 v 2 h 1 v 2 h 1 v 2 h 1 v 1 h 1 v 2 h 1 v 2 h 1 v 1 h 1 v 2 h 1 v 2 h 1 v 2 h 1 v 1 h 1 v 2 h 1 v 2 h 1 v 2 h 1 v 1 h 1 v 2 h 1 v 2 h 1 v 1 h 1 v 2 h 1 v 2 h 1 v 2 h 1 v 1 h 1 v 2 h 1 v 2 h 1 v 1 h 1 v 2 h 1 v 1 h 1 v 1 h 1 v 2 h 1 v 1 h 1 v 1 h 1 v 2 h 1 v 1 h 1 v 1 h 1 v 1 h 1 v 2 h 1 v 1 h 1 v 1 h 1 v 1 h 1 v 1 h 1 v 1 h 1 v 1 h 1 v 1 h 1 v 2 h 1 v 1 h 1 v 1 h 1 v 1 h 1 v 1 h 1 v 1 h 1 v 1 h 1 v 1 h 1 v 1 h 1 v 1 h 1 v 1 h 1 v 1 h 1 v 1 h 1 v 1 h 1 v 1 h 1 v 1 h 2 v 1 h 1 v 1 h 1 v 1 h 1 v 1 h 1 v 1 h 1 v 1 h 1 v 1 h 2 v 1 h 1 v 1 h 1 v 1 h 1 v 1 h 2 v 1 h 1 v 1 h 1 v 1 h 2 v 1 h 1 v 1 h 1 v 1 h 2 v 1 h 1 v 1 h 1 v 1 h 2 v 1 h 1 v 1 h 2 v 1 h 1 v 1 h 2 v 1 h 2 v 1 h 1 v 1 h 2 v 1 h 1 v 1 h 2 v 1 h 1 v 1 h 2 v 1 h 2 v 1 h 2 v 1 h 2 v 1 h 1 v 1 h 2 v 1 h 2 v 1 h 2 v 1 h 2 v 1 h 2 v 1 h 2 v 1 h 2 v 1 h 2 v 1 h 2 v 1 h 3 v 1 h 2 v 1 h 2 v 1 h 2 v 1 h 2 v 1 h 3 v 1 h 2 v 1 h 3 v 1 h 3 v 1 h 2 v 1 h 3 v 1 h 3 v 1 h 2 v 1 h 3 v 1 h 3 v 1 h 4 v 1 h 4 v 1 h 4 v 1 h 3 v 1 h 4 v 1 h 4 v 1 h 4 v 1 h 4 v 1 h 4 v 1 h 4 v 1 h 5 v 1 h 5 v 1 h 6 v 1 h 5 v 1 h 5 v 1 h 7 v 1 h 7 v 1 h 8 v 1 h 7 v 1 h 9 v 1 h 13 v 1 h 12 v 1 h 80 v -1 h 14 v -1 h 13 v -1 h 11 v -1 h 8 v -1 h 8 v -1 h 9 v -1 h 7 v -1 h 7 v -1 h 6 v -1 h 6 v -1 h 6 v -1 h 6 v -1 h 6 v -1 h 5 v -1 h 5 v -1 h 5 v -1 h 5 v -1 h 5 v -1 h 5 v -1 h 5 v -1 h 4 v -1 h 4 v -1 h 4 v -1 h 4 v -1 h 5 v -1 h 4 v -1 h 4 v -1 h 4 v -1 h 4 v -1 h 4 v -1 h 3 v -1 h 4 v -1 h 4 v -1 h 3 v -1 h 4 v -1 h 4 v -1 h 3 v -1 h 4 v -1 h 3 v -1 h 4 v -1 h 3 v -1 h 3 v -1 h 3 v -1 h 4 v -1 h 3 v -1 h 3 v -1 h 4 v -1 h 3 v -1 h 3 v -1 h 3 v -1 h 3 v -1 h 3 v -1 h 3 v -1 h 3 v -1 h 3 v -1 h 3 v -1 h 3 v -1 h 3 v -1 h 3 v -1 h 3 v -1 h 3 v -1 h 2 v -1 h 3 v -1 h 3 v -1 h 3 v -1 h 2 v -1 h 3 v -1 h 3 v -1 h 3 v -1 h 2 v -1 h 3 v -1 h 3 v -1 h 2 v -1 h 3 v -1 h 3 v -1 h 2 v -1 h 3 v -1 h 2 v -1 h 3 v -1 h 2 v -1 h 3 v -1 h 2 v -1 h 3 v -1 h 3 v -1 h 2 v -1 h 3 v -1 h 2 v -1 h 2 v -1 h 3 v -1 h 2 v -1 h 3 v -1 h 2 v -1 h 2 v -1 h 3 v -1 h 2 v -1 h 3 v -1 h 2 v -1 h 2 v -1 h 3 v -1 h 2 v -1 h 2 v -1 h 3 v -1 h 2 v -1 h 2 v -1 h 2 v -1 h 3 v -1 h 2 v -1 h 2 v -1 h 2 v -1 h 3 v -1 h 2 v -1 h 2 v -1 h 2 v -1 h 3 v -1 h 2 v -1 h 2 v -1 h 2 v -1 h 2 v -1 h 2 v -1 h 3 v -1 h 2 v -1 h 2 v -1 h 2 v -1 h 2 v -1 h 2 v -1 h 2 v -1 h 3 v -1 h 2 v -1 h 2 v -1 h 2 v -1 h 2 v -1 h 2 v -1 h 2 v -1 h 2 v -1 h 2 v -1 h 2 v -1 h 2 v -1 h 2 v -1 h 2 v -1 h 2 v -1 h 2 v -1 h 2 v -1 h 2 v -1 h 2 v -1 h 2 v -1 h 2 v -1 h 2 v -1 h 2 v -1 h 2 v -1 h 2 v -1 h 2 v -1 h 2 v -1 h 2 v -1 h 2 v -1 h 2 v -1 h 2 v -1 h 2 v -1 h 2 v -1 h 2 v -1 h 2 v -1 h 2 v -1 h 1 v -1 h 2 v -1 h 2 v -1 h 2 v -1 h 2 v -1 h 2 v -1 h 2 v -1 h 2 v -1 h 2 v -1 h 1 v -1 h 2 v -1 h 2 v -1 h 2 v -1 h 2 v -1 h 2 v -1 h 2 v -1 h 1 v -1 h 2 v -1 h 2 v -1 h 2 v -1 h 2 v -1 h 1 v -1 h 2 v -1 h 2 v -1 h 2 v -1 h 2 v -1 h 2 v -1 h 1 v -1 h 2 v -1 h 2 v -1 h 2 v -1 h 1 v -1 h 2 v -1 h 2 v -1 h 2 v -1 h 1 v -1 h 2 v -1 h 2 v -1 h 2 v -1 h 1 v -1 h 2 v -1 h 2 v -1 h 2 v -1 h 1 v -1 h 2 v -1 h 2 v -1 h 1 v -1 h 2 v -1 h 2 v -1 h 2 v -1 h 1 v -1 h 2 v -1 h 2 v -1 h 1 v -1 h 2 v -1 h 2 v -1 h 1 v -1 h 2 v -1 h 2 v -1 h 1 v -1 h 2 v -1 h 2 v -1 h 1 v -1 h 2 v -1 h 2 v -1 h 1 v -1 h 2 v -1 h 2 v -1 h 1 v -1 h 2 v -1 h 2 v -1 h 1 v -1 h 2 v -1 h 1 v -1 h 2 v -1 h 2 v -1 h 1 v -1 h 2 v -1 h 2 v -1 h 1 v -1 h 2 v -1 h 1 v -1 h 2 v -1 h 2 v -1 h 1 v -1 h 2 v -1 h 1 v -1 h 2 v -1 h 1 v -1 h 2 v -1 h 2 v -1 h 1 v -1 h 2 v -1 h 1 v -1 h 2 v -1 h 1 v -1 h 2 v -1 h 2 v -1 h 1 v -1 h 2 v -1 h 1 v -1 h 2 v -1 h 1 v -1 h 2 v -1 h 1 v -1 h 2 v -1 h 1 v -1 h 2 v -1 h 1 v -1 h 2 v -1 h 1 v -1 h 2 v -1 h 1 v -1 h 2 v -1 h 1 v -1 h 2 v -1 h 1 v -1 h 2 v -1 h 1 v -1 h 2 v -1 h 1 v -1 h 2 v -1 h 1 v -1 h 2 v -1 h 1 v -1 h 2 v -1 h 1 v -1 h 2 v -1 h 1 v -1 h 2 v -1 h 1 v -1 h 2 v -1 h 1 v -1 h 1 v -1 h 2 v -1 h 1 v -1 h 2 v -1 h 1 v -1 h 2 v -1 h 1 v -1 h 1 v -1 h 2 v -1 h 1 v -1 h 2 v -1 h 1 v -1 h 1 v -1 h 2 v -1 h 1 v -1 h 2 v -1 h 1 v -1 h 1 v -1 h 2 v -1 h 1 v -1 h 2 v -1 h 1 v -1 h 1 v -1 h 1 v -2 h -1 v -2 h -1 v -2 h -1 v -1 h -1 v -2 h -1 v -2 h -1 v -1 h -1 v -2 h -1 v -2 h -1 v -1 h -1 v -2 h -1 v -2 h -1 v -1 h -1 v -2 h -1 v -2 h -1 v -1 h -1 v -2 h -1 v -2 h -1 v -1 h -1 v -2 h -1 v -2 h -1 v -1 h -1 v -2 h -1 v -2 h -1 v -1 h -1 v -2 h -1 v -2 h -1 v -1 h -1 v -2 h -1 v -2 h -1 v -1 h -1 v -2 h -1 v -2 h -1 v -1 h -1 v -2 h -1 v -2 h -1 v -1 h -1 v -2 h -1 v -2 h -1 v -1 h -1 v -2 h -1 v -2 h -1 v -2 h -1 v -1 h -1 v -2 h -1 v -2 h -1 v -1 h -1 v -2 h -1 v -2 h -1 v -1 h -1 v -2 h -1 v -2 h -1 v -1 h -1 v -2 h -1 v -2 h -1 v -1 h -1 v -2 h -1 v -2 h -1 v -1 h -1 v -2 h -1 v -2 h -1 v -1 h -1 v -2 h -1 v -2 h -1 v -1 h -1 v -2 h -1 v -2 h -1 v -1 h -1 v -2 h -1 v -2 h -1 v -1 h -1 v -2 h -1 v -2 h -1 v -1 h -1 v -2 h -1 v -2 h -1 v -1 h -1 v -2 h -1 v -2 h -1 v -1 h -1 v -2 h -1 v -2 h -1 v -1 h -1 v -2 h -1 v -2 h -1 v -1 h -1 v -2 h -1 v -2 h -1 v -1 h -1 v -2 h -1 v -2 h -1 v -1 h -1 v -2 h -1 v -2 h -1 v -1 h -1 v -2 h -1 v -2 h -1 v -1 h -1 v -2 h -1 v -2 h -1 v -1 h -1 v -2 h -1 v -2 h -1 v -1 h -1 v -2 h -1 v -2 h -1 v -1 h -1 v -2 h -1 v -2 h -1 v -1 h -1 v -2 h -1 v -2 h -1 v -1 h -1 v -2 h -1 v -2 h -1 v -1 h -1 v -2 h -1 v -2 h -1 v -1 h -1 v -2 h -1 v -2 h -1 v -1 h -1 v -2 h -1 v -2 h -1 v -1 h -1 v -2 h -1 v -2 h -1 v -1 h -1 v -2 h -1 v -2 h -1 v -1 h -1 v -2 h -1 v -2 h -1 v -1 h -1 v -2 h -1 v -2 h -1 v -1 h -1 v -2 h -1 v -2 h -1 v -1 h -1 v -2 h -1 v -2 h -1 v -1 h -1 v -2 h -1 v -2 h -1 v -1 h -1 v -2 h -1 v -2 h -1 v -1 h -1 v -2 h -1 v -2 h -1 v -1 h -1 v -2 h -1 v -2 h -1 v -1 h -1 v -2 h -1 v -2 h -1 v -1 h -1 v -2 h -1 v -2 h -1 v -1 h -1 v -2 h -1 v -2 h -1 v -1 h -1 v -2 h -1 v -2 h -1 v -1 h -1 v -2 h -1 v -2 h -1 v -1 h -1 v -2 h -1 v -2 h -1 v -2 h -1 v -1 h -1 v -2 h -1 v -2 h -1 v -1 h -1 v -2 h -1 v -2 h -1 v -1"
           style="opacity:0.29932;fill:url(#linearGradient55);fill-opacity:1;fill-rule:nonzero;stroke:none"
           transform="matrix(0.13333333,0,0,-0.13333333,0,197.76)"
           clip-path="url(#clipPath5-2-5)"
           id="path83" /><path
           style="opacity:1;fill:url(#linearGradient56);fill-opacity:1;stroke-width:4"
           d="m -730.61708,1042.1203 24.79999,-39.7333 c 13.46666,5.4667 31.12518,10.9336 60.39999,32.8 0.10667,0.08 -23.99999,40.1333 -23.99999,40.1333 -16.4,-10.9333 -45.6,-26.8 -61.19999,-33.2 z"
           id="path84"
           transform="translate(857.41711,-992.76035)" /><path
           id="path85"
           clip-path="url(#clipPath10-3-7)"
           style="fill:url(#linearGradient57);fill-rule:nonzero;stroke:none"
           d="m 606.28584,1183.9654 c -44.65995,0 -88.72866,-4.3618 -131.55762,-14.0918 -12.32399,-2.65 -24.49438,-5.7201 -36.40137,-9.5801 -112.03089,-36.3699 -174.67867,-118.3495 -174.63867,-209.89742 0.007,-16.77915 2.13041,-33.8784 6.43066,-51.0791 18.58993,70.58045 77.03944,130.37842 168.20801,159.97562 11.90699,3.86 24.07738,6.9447 36.40137,9.5947 42.82896,9.73 86.89767,14.0771 131.55762,14.0771 268.24531,0 555.66156,-156.98982 703.41796,-250.66403 l 100.708,32.69532 c 0,0 -422.12634,318.96971 -804.12596,318.96971 z"
           transform="matrix(0.13333333,0,0,-0.13333333,0,197.76)" /><path
           style="display:inline;opacity:1;fill:url(#linearGradient58);fill-opacity:1;stroke-width:4"
           d="M 139.01873,98.302103 188.26666,82.42667 c 0,0 -30.8609,-22.791767 -61.99998,-33.199967 47.6041,29.9419 12.75205,49.0754 12.75205,49.0754 z"
           id="path94" /></g></g></g></svg>
